<svg version="1.1" id="Слой_1" xmlns="http://www.w3.org/2000/svg" x="0" y="0" viewBox="0 0 103 32" style="enable-background:new 0 0 103 32" xml:space="preserve"><style>.st0{fill:#e12c38}.st1{fill:#fff}</style><path class="st0" d="M28.8 22.3v-.4c0-2-1.6-3.6-3.6-3.6h-2.1c-2 0-3.6 1.6-3.6 3.6v6.5c0 2 1.6 3.6 3.6 3.6h1.3s1.3 0 2.7-1.4v1.1h1.6V25H24v1.6h2.2v1.9c0 1-.8 1.8-1.8 1.8h-.3c-1 0-1.8-.8-1.8-1.8V22c0-1 .8-1.8 1.8-1.8h.3c1 0 1.8.8 1.8 1.8v.5h2.6zM83.4 22.3v-.4c0-2-1.6-3.6-3.6-3.6h-2.1c-2 0-3.6 1.6-3.6 3.6v6.5c0 2 1.6 3.6 3.6 3.6H79s1.3 0 2.7-1.4v1.1h1.6V25h-4.7v1.6h2.2v1.9c0 1-.8 1.8-1.8 1.8h-.3c-1 0-1.8-.8-1.8-1.8V22c0-1 .8-1.8 1.8-1.8h.3c1 0 1.8.8 1.8 1.8v.5h2.6zM38.1 31.7h2.6l-4-13.3H34.3l-4 13.3H33l.8-2.8h3.4l.9 2.8zm-3.7-4.5H34l1.5-5 1.5 5H34.4zM52.1 18.4h-1.3l-3 5.7-2.9-5.7H42.8v13.5h2.1V23l1.7 3.4 1.2 2.3 1.2-2.3 1.8-3.4v8.9h2.1V18.4zM60.9 20.1v-1.7h-6.2v1.7h1.9V30h-1.9v1.7h6.2V30h-2v-9.9zM70.1 18.4v8.4l-4-8.4h-2.4v13.3h2.4v-8.3l4 8.3h2.4V18.4z"/><path class="st1" d="M22.3 0s7.1.2 9.7 4c.8 1.2.5 2.7.1 3.6-.3.6-.6 1.1-1.1 1.6-.4.5-.9.9-1.4 1.3l-1.7 1.3c-.3.2-.1.7.2.7l5.1-.2v3.1H20.5V15s5.8-3.9 6.8-7.1c.8-2.6-1.1-3.9-2.7-4.4-1.7-.6-3-.6-3-.6l.7-2.9zM71.6 0s7.3.1 9.7 4c1.8 2.9-1 5.2-1 5.2l-3.1 2.5c-.3.2-.1.7.2.7l5.1-.2v3.4l-12.7-.3V15s6.1-4.3 6.7-7.2c.6-2.5-1-3.8-2.6-4.4-1.7-.6-3-.6-3-.6l.7-2.8zM50.3 10.8c0-1.2-1-2.3-2.3-2.7l-1.3-.4c-.3-.1-.4-.6 0-.7l.8-.3c1.2-.5 2.1-1.6 2.1-2.7 0-1.2-1-2-2.2-2.5-1.2-.7-5.6-.9-5.6-.9h-4.6v14.9h4.4c4.7-.2 8.7-2.3 8.7-4.7zm-8.8-8.4c0-.2.2-.4.4-.4.4 0 1.2.2 1.8.4 1.2.5 1.7 1.7.8 3.1-.7 1.1-1.7 1.4-2.4 1.5-.2 0-.6-.1-.6-.3V2.4zm3.1 10.1c-.7.6-1.9.9-2.7 1-.3 0-.5-.2-.5-.4V8.8c0-.3.2-.5.6-.4 1.6.2 2 .4 2.8.9.8.6 1.1 2.2-.2 3.2zM68 3.7 66.9.4c0-.1-.2-.2-.3-.2-1 .3-4.4 1.6-6 4.8-.2.3-.3.6-.4 1-.1.3-.6.3-.7 0-.2-.6-.6-1.4-1.1-2.2C56.8 1.4 54.1.5 53.3.3c-.1 0-.3 0-.3.1l-1.4 3.3c-.1.1 0 .3.2.4 2.6.8 3.7 2 4.4 3.2 1 1.6 1.1 3 1.1 3v5H62v-4.4s0-3 2.3-5C66 4.4 67.4 4.1 68 4c0 0 .1-.2 0-.3z"/></svg>