<svg version="1.1" id="Слой_1" xmlns="http://www.w3.org/2000/svg" x="0" y="0" viewBox="0 0 103 32" style="enable-background:new 0 0 103 32" xml:space="preserve"><style>.st0{fill:#fff}.st1{fill:#0ac18e}</style><path class="st0" d="M20.1 22.2c-.7 0-1.3 0-2-.1-.7 0-1.4-.1-2.1-.3V10c.6-.1 1.2-.2 1.9-.2.7-.1 1.3-.1 1.9-.1.8 0 1.5.1 2.1.2.7.1 1.2.3 1.7.6s.8.6 1.1 1.1c.3.4.4 1 .4 1.6 0 1-.5 1.7-1.4 2.3.8.3 1.3.7 1.6 1.2.3.5.4 1.1.4 1.7 0 1.3-.5 2.2-1.4 2.9-1 .6-2.4.9-4.2.9zm-1.4-7.6H20c.9 0 1.4-.1 1.8-.3.4-.2.5-.6.5-1 0-.5-.2-.8-.6-1-.4-.2-.9-.3-1.7-.3h-1.5c.2-.1.2 2.6.2 2.6zm0 2.1v3.2c.2 0 .4 0 .7.1h.8c.8 0 1.5-.1 2-.4.5-.2.8-.7.8-1.3 0-.6-.2-1-.6-1.2-.4-.2-1-.4-1.8-.4h-1.9zM29.6 10.1c0 .5-.2.9-.5 1.1-.3.3-.7.4-1.1.4-.4 0-.8-.1-1.1-.4-.3-.3-.5-.7-.5-1.1 0-.5.2-.9.5-1.1.3-.3.7-.4 1.1-.4.4 0 .8.1 1.1.4.3.2.5.6.5 1.1zM29.3 22h-2.6v-9.3h2.6V22zM30.8 10.4l2.6-.4v2.7h3.2v2.2h-3.2v3.3c0 .6.1 1 .3 1.3.2.3.6.5 1.2.5.3 0 .6 0 .9-.1.3 0 .6-.1.8-.2l.4 2c-.3.1-.7.3-1.1.3-.4.1-.9.1-1.4.1-.7 0-1.3-.1-1.8-.3-.5-.2-.9-.5-1.1-.8-.3-.3-.5-.8-.6-1.3-.1-.5-.2-1.1-.2-1.6v-7.7zM36.9 17.4c0-.6.1-1.3.3-1.9.2-.6.5-1.1.9-1.5.4-.4.9-.8 1.5-1 .6-.3 1.3-.4 2-.4.5 0 .9 0 1.4.1.4.1.8.2 1.2.4l-.5 2.1c-.3-.1-.5-.2-.8-.2-.3-.1-.7-.1-1-.1-.8 0-1.4.2-1.7.7-.4.5-.6 1.1-.6 1.9 0 .8.2 1.5.5 1.9.4.5 1 .7 1.9.7.3 0 .7 0 1-.1.3-.1.7-.1 1-.3l.4 2.2c-.4.1-.8.3-1.1.3-.5.1-1 .1-1.5.1-.9 0-1.6-.1-2.2-.4-.6-.3-1.1-.6-1.5-1s-.7-.9-.9-1.5c-.2-.7-.3-1.4-.3-2zM53.4 17.4c0 .7-.1 1.4-.3 2-.2.6-.5 1.1-.9 1.5-.4.4-.9.8-1.4 1-.6.2-1.2.4-1.9.4s-1.3-.1-1.9-.4c-.5-.2-1-.6-1.4-1-.4-.4-.7-.9-.9-1.5-.2-.6-.3-1.3-.3-2s.1-1.4.3-2c.2-.6.5-1.1.9-1.5.4-.4.9-.8 1.4-1 .6-.2 1.2-.4 1.8-.4.7 0 1.3.1 1.8.4.6.2 1 .6 1.4 1 .4.4.7 1 .9 1.5.4.6.5 1.2.5 2zm-2.6 0c0-.8-.2-1.4-.5-1.9s-.8-.7-1.4-.7c-.6 0-1.1.2-1.4.7-.3.5-.5 1.1-.5 1.9 0 .8.2 1.5.5 1.9.3.5.8.7 1.4.7.6 0 1.1-.2 1.4-.7.3-.5.5-1.1.5-1.9zM57.4 10.1c0 .5-.2.9-.5 1.1-.3.3-.7.4-1.1.4-.4 0-.8-.1-1.1-.4-.3-.3-.5-.7-.5-1.1 0-.5.2-.9.5-1.1.3-.3.7-.4 1.1-.4.4 0 .8.1 1.1.4.3.2.5.6.5 1.1zM57.1 22h-2.6v-9.3h2.6V22zM58.6 13.1c.4-.1 1-.3 1.7-.4.7-.1 1.5-.2 2.2-.2.8 0 1.4.1 2 .3.5.2.9.5 1.2.9.3.4.5.8.7 1.3s.2 1.1.2 1.7V22H64v-4.9c0-.9-.1-1.4-.3-1.8-.2-.4-.6-.5-1.2-.5h-.6c-.2 0-.4 0-.6.1V22h-2.6l-.1-8.9z"/><path class="st1" d="M73.8 22.3c-2 0-3.5-.6-4.5-1.7s-1.6-2.7-1.6-4.7c0-1 .2-1.9.5-2.7.3-.8.8-1.5 1.3-2 .6-.5 1.2-1 2-1.2.8-.3 1.6-.4 2.5-.4.5 0 1 0 1.4.1.4.1.7.1 1.1.3.3.1.5.2.8.3.2.1.4.2.5.2l-.8 2.2c-.4-.2-.9-.4-1.3-.5-.6-.2-1.2-.2-1.8-.2-.4 0-.8.1-1.2.2-.4.1-.8.4-1.1.7-.3.3-.6.7-.8 1.2-.2.5-.3 1.1-.3 1.8 0 .5.1 1.1.2 1.6s.3.9.6 1.3.7.7 1.1.8c.4.2 1 .3 1.6.3.4 0 .7 0 1.1-.1.3 0 .6-.1.9-.2.2-.1.4-.1.7-.2.2-.1.4-.2.5-.2l.8 2.2c-.4.2-.9.4-1.6.6-.9.2-1.7.3-2.6.3zM82 12.5c.8 0 1.4.1 1.9.3.5.2.9.4 1.2.8.3.3.5.7.7 1.2.1.5.2 1 .2 1.6v5.5c-.4.1-.9.2-1.6.3-.7.1-1.5.2-2.4.2-.6 0-1.1-.1-1.6-.2s-.9-.3-1.3-.5c-.3-.2-.6-.6-.8-.9-.2-.4-.3-.9-.3-1.4 0-.5.1-1 .3-1.4.2-.4.5-.7.9-.9.4-.2.8-.4 1.2-.5.5-.1 1-.2 1.5-.2h.9c.3 0 .5.1.6.1v-.2c0-.4-.1-.8-.4-1.1-.3-.3-.7-.4-1.4-.4-.4 0-.9 0-1.3.1s-.8.2-1.1.3l-.3-2.1c.2 0 .3-.1.6-.2.2-.1.5-.1.8-.1.3 0 .6-.1.9-.1.2-.2.5-.2.8-.2zm.2 7.7h.7c.2 0 .4 0 .6-.1v-2c-.1 0-.3 0-.5-.1H81.7c-.2 0-.4.1-.6.2-.2.1-.3.2-.4.3-.1.2-.1.3-.1.5 0 .4.1.7.4.9.3.2.7.3 1.2.3zM90.1 20.1c.5 0 .8 0 1-.1.2-.1.3-.3.3-.5s-.1-.4-.4-.6c-.3-.2-.7-.3-1.2-.5-.4-.2-.8-.3-1.1-.5l-.9-.6c-.2-.2-.4-.5-.5-.8-.1-.3-.2-.7-.2-1.1 0-.9.3-1.6 1-2.1.6-.5 1.5-.8 2.7-.8.5 0 1.1.1 1.6.2s.9.2 1.2.3l-.5 2c-.3-.1-.7-.2-1-.3-.4-.1-.8-.1-1.2-.1-.8 0-1.2.2-1.2.7 0 .1 0 .2.1.3 0 .1.1.2.2.2.1.1.3.2.4.2.2.1.5.2.7.3.6.2 1 .4 1.4.6.4.2.7.4.9.7.2.2.4.5.5.8.1.3.1.6.1 1 0 .9-.3 1.6-1 2.1s-1.7.7-2.9.7c-.8 0-1.5-.1-2.1-.2-.5-.1-.9-.3-1.1-.4l.4-2.1c.4.2.9.3 1.4.4.5.2.9.2 1.4.2zM95 22V8.8l2.6-.4v4.4c.2-.1.4-.1.7-.2.3-.1.5-.1.8-.1.8 0 1.4.1 1.9.3s.9.5 1.2.9c.3.4.5.8.6 1.3.1.5.2 1.1.2 1.7V22h-2.6v-4.9c0-.9-.1-1.4-.3-1.8-.2-.4-.6-.5-1.2-.5-.2 0-.4 0-.7.1-.2 0-.4.1-.6.1v7H95z"/><circle class="st1" cx="6.9" cy="15.4" r="6.9"/><path id="symbol_1_" class="st0" d="M9.1 13.1c-.3-.8-1.1-1-2.1-.8l-.3-1.2-.7.2.3 1.2c-.2 0-.4.1-.6.1l-.3-1.2-.7.2.3 1.2c-.2 0-1.5.4-1.5.4l.1.8s.5-.2.5-.1c.3-.1.4.1.5.2l.9 3.3c0 .1 0 .3-.2.3l-.5.1.1.9s1.3-.3 1.5-.4l.3 1.2.7-.2-.3-1.2c.2 0 .4-.1.6-.1l.3 1.3.7-.2-.3-1.2c1.1-.3 1.9-1 1.8-2.1-.1-.7-.8-1.2-1.4-1.3.3-.3.5-.8.3-1.4zM8.7 16c.1 1.1-1.4 1.2-1.9 1.4l-.4-1.6c.5-.2 2.1-.8 2.3.2zm-.9-2.2c.2 1-1.1 1.1-1.6 1.2l-.4-1.5c.5-.1 1.7-.6 2 .3z"/></svg>