<svg version="1.1" id="Слой_1" xmlns="http://www.w3.org/2000/svg" x="0" y="0" viewBox="0 0 103 32" style="enable-background:new 0 0 103 32" xml:space="preserve"><style>.st1{fill:#fff}</style><path d="M21.1 17.4c-1.4 5.7-7.2 9.2-13 7.8-5.7-1.4-9.2-7.2-7.8-13 1.4-5.7 7.2-9.2 13-7.8 5.7 1.4 9.2 7.3 7.8 13z" style="fill:#f7931a"/><path class="st1" d="M15.4 13.3c.2-1.4-.9-2.2-2.4-2.7l.5-1.9-1.2-.3-.5 1.9c-.3-.1-.6-.1-.9-.2l.5-1.9-1.2-.3-.4 1.9c-.3-.1-.5-.2-.8-.2l-1.6-.4-.3 1.3.9.2c.5.1.6.4.5.7L8 13.5h.1H8l-.8 3.1c-.1.2-.2.4-.5.3l-.9-.2-.6 1.3 1.5.4c.3.1.6.1.8.2l-.5 2 1.2.3.5-1.9c.3.1.6.2.9.2l-.5 1.9 1.2.3.5-2c2 .4 3.5.2 4.1-1.6.5-1.5 0-2.3-1.1-2.9.9-.1 1.5-.6 1.6-1.6zm-2.6 3.8c-.4 1.5-2.8.7-3.6.5l.6-2.6c.8.1 3.3.5 3 2.1zm.3-3.8c-.3 1.3-2.4.7-3 .5l.6-2.3c.6.1 2.8.4 2.4 1.8zM31.4 10.6c.9 0 1.6.2 2.3.5.6.3 1.2.7 1.6 1.2.4.5.7 1.1.9 1.8.2.7.3 1.5.3 2.3 0 1.2-.2 2.4-.7 3.5-.5 1.1-1.1 2.1-1.9 2.9-.8.8-1.7 1.5-2.8 2-1.1.5-2.3.7-3.5.7h-.9c-.4 0-.9-.1-1.4-.1-.5-.1-1.1-.2-1.7-.3-.6-.1-1.1-.3-1.7-.6l4.7-19.7 4.2-.7-1.7 7c.4-.2.7-.3 1.1-.4.4-.1.8-.1 1.2-.1zm-3.5 11.6c.6 0 1.2-.2 1.8-.5.6-.3 1-.7 1.5-1.2.4-.5.7-1.1 1-1.8.2-.7.4-1.3.4-2 0-.9-.1-1.5-.4-2-.3-.5-.8-.7-1.6-.7-.3 0-.6 0-1 .1s-.8.3-1.1.6l-1.8 7.4c.1 0 .2 0 .3.1H27.9zM40.8 25.1h-4l3.4-14.3h4l-3.4 14.3zm2-16c-.6 0-1.1-.2-1.5-.5-.5-.3-.7-.8-.7-1.5 0-.4.1-.7.2-1.1l.6-.9c.3-.2.5-.4.9-.6.3-.1.7-.2 1.1-.2.6 0 1.1.2 1.5.5.5.3.7.8.7 1.5 0 .4-.1.7-.2 1.1l-.6.9c-.3.2-.5.4-.9.6-.4.2-.8.2-1.1.2zM47.7 7.3l4.3-.6-1 4.2h4.5l-.8 3.3h-4.5l-1.2 5c-.1.4-.2.8-.2 1.2 0 .4 0 .7.1.9.1.3.3.5.6.6.3.1.7.2 1.2.2.4 0 .9 0 1.3-.1l1.2-.3.3 3.1c-.5.2-1.1.4-1.8.5-.6.1-1.4.2-2.3.2-1.2 0-2.2-.2-2.9-.6-.7-.4-1.2-.9-1.5-1.5-.3-.6-.4-1.4-.4-2.2 0-.8.2-1.7.4-2.6l2.7-11.3zM55.2 19.5c0-1.2.2-2.4.6-3.5.4-1.1 1-2 1.7-2.9.7-.8 1.6-1.5 2.7-1.9 1.1-.5 2.2-.7 3.5-.7.8 0 1.5.1 2.2.2l1.8.6-1.4 3.1c-.4-.1-.7-.3-1.1-.4-.4-.1-.9-.2-1.4-.2-1.3 0-2.4.5-3.2 1.4-.8.9-1.2 2.2-1.2 3.7 0 .9.2 1.7.6 2.2.4.6 1.1.9 2.2.9.5 0 1-.1 1.5-.2s.9-.2 1.3-.4l.3 3.2c-.5.2-1.1.4-1.7.5-.6.2-1.3.2-2.2.2-1.1 0-2.1-.2-2.8-.5-.8-.3-1.4-.8-1.9-1.3-.5-.6-.9-1.2-1.1-1.9-.2-.6-.4-1.3-.4-2.1zM73.1 25.5c-1 0-1.8-.1-2.5-.4-.7-.3-1.3-.7-1.7-1.2-.5-.5-.8-1.1-1-1.9-.2-.7-.4-1.5-.4-2.4 0-1.1.2-2.2.5-3.3.4-1.1.9-2.1 1.6-2.9.7-.9 1.5-1.6 2.5-2.1s2.1-.8 3.4-.8c.9 0 1.8.1 2.5.4.7.3 1.3.7 1.8 1.2s.8 1.1 1 1.9c.2.7.4 1.5.4 2.4 0 1.1-.2 2.2-.5 3.3-.3 1.1-.8 2.1-1.5 2.9-.7.9-1.5 1.6-2.5 2.1-1.1.5-2.3.8-3.6.8zm2-11.6c-.6 0-1.1.2-1.6.5s-.8.8-1.1 1.3c-.3.5-.5 1.1-.7 1.7-.2.6-.2 1.2-.2 1.8 0 .9.1 1.6.4 2.1.3.5.8.8 1.6.8.6 0 1.1-.2 1.6-.5.4-.3.8-.8 1.1-1.3.3-.5.5-1.1.7-1.7.2-.6.2-1.2.2-1.8 0-.9-.1-1.6-.4-2.1-.3-.5-.9-.8-1.6-.8zM85.5 25.1h-4l3.4-14.3h4l-3.4 14.3zm1.9-16c-.6 0-1.1-.2-1.5-.5-.5-.3-.7-.8-.7-1.5 0-.4.1-.7.2-1.1l.6-.9c.3-.2.5-.4.9-.6.3-.1.7-.2 1.1-.2.6 0 1.1.2 1.5.5.5.3.7.8.7 1.5 0 .4-.1.7-.2 1.1l-.6.9c-.3.2-.5.4-.9.6-.3.2-.7.2-1.1.2zM91.8 11.5c.3-.1.6-.2 1-.3l1.2-.3c.5-.1 1-.2 1.5-.2.6-.1 1.2-.1 1.9-.1 2.1 0 3.6.6 4.4 1.8.8 1.2.9 2.9.4 5l-1.8 7.7h-4l1.8-7.5c.1-.5.2-.9.3-1.4.1-.4.1-.8 0-1.2-.1-.3-.2-.6-.5-.8-.3-.2-.7-.3-1.2-.3s-1.1.1-1.6.2l-2.6 11h-4l3.2-13.6z"/></svg>