<svg version="1.1" id="Слой_1" xmlns="http://www.w3.org/2000/svg" x="0" y="0" viewBox="0 0 103 32" style="enable-background:new 0 0 103 32" xml:space="preserve"><style>.st6{fill:#fff}</style><path d="M9.8 32h-.2c-.3-.1-.5-.4-.5-.6v-7c0-.2.1-.4.3-.6l8.3-5.8c.3-.2.6-.2.9.1.2.2.3.6.1.9l-8.3 12.7c-.1.1-.3.3-.6.3zm.7-7.3V29l5.1-7.9-5.1 3.6z" style="fill:#4c96e4"/><linearGradient id="SVGID_1_" gradientUnits="userSpaceOnUse" x1=".799" y1="13.656" x2="9.906" y2="13.656"><stop offset=".005" style="stop-color:#257524"/><stop offset="1" style="stop-color:#6dc642"/></linearGradient><path style="fill:url(#SVGID_1_)" d="m1.4 16.4-.6-1.2 8.5-4.3.6 1.3z"/><linearGradient id="SVGID_2_" gradientUnits="userSpaceOnUse" x1="9.417" y1="13.656" x2="18.524" y2="13.656"><stop offset=".002" style="stop-color:#a2609e"/><stop offset=".998" style="stop-color:#8124a1"/></linearGradient><path style="fill:url(#SVGID_2_)" d="m17.9 16.4-8.5-4.2.6-1.3 8.5 4.3z"/><path d="M9.7 22.1c-.1 0-.2 0-.3-.1-.3-.1-.4-.3-.4-.6V.7c0-.3.2-.6.5-.7.3-.1.6.1.8.3l8.4 15.1c.2.3.1.7-.2.9L10.1 22c-.2 0-.3.1-.4.1zm.7-18.8v16.8l6.8-4.6-6.8-12.2z" style="fill:#f49f8e"/><path d="M9.7 0c-.3 0-.6.1-.7.4l-8.5 15c-.2.3-.1.7.2.9L9.2 22c.1.1.3.1.4.1h.1V0zm-.8 20.1-6.8-4.6L8.9 3.3v16.8z" style="fill:#fee64f"/><path d="m9.7 23.5-8-5.5c-.3-.2-.6-.2-.9.1-.2.2-.3.6-.1.9L9 31.7c.2.1.4.3.6.3h.1v-8.5zM8.9 29l-5.1-7.9 5.1 3.6V29z" style="fill:#54d0da"/><path class="st6" d="M31.2 11.1H37v1.6h-3.8v2.1h3v1.5h-3v2.2H37V20h-5.8v-8.9zM41.4 12.7H39v-1.6h6.8v1.6h-2.4V20h-2v-7.3zM47.2 11.1h2v3.6h3.6v-3.6h2V20h-2v-3.7h-3.6V20h-2v-8.9zM57.9 11.1h5.8v1.6h-3.8v2.1h3v1.5h-3v2.2h3.8V20h-5.8v-8.9zM66 11.1h3.2c2.1 0 3.4.9 3.4 2.7 0 1.3-.8 2-1.8 2.4l2.3 3.8H71l-2.1-3.4H68V20h-2v-8.9zm3.2 4.1c1 0 1.5-.4 1.5-1.3s-.5-1.2-1.5-1.2H68v2.5h1.2zM75.5 11.1h5.8v1.6h-3.8v2.1h3v1.5h-3v2.2h3.8V20h-5.8v-8.9zM83.3 16.5v-5.4h2v5.3c0 1.5.4 2.1 1.7 2.1 1.2 0 1.7-.6 1.7-2.2v-5.2h2v5.3c0 2.4-1.4 3.7-3.7 3.7-2.4 0-3.7-1.2-3.7-3.6zM93.2 11.1h2.7l2.1 4.1 2-4.1h2.6V20h-2v-6.2L98.1 18h-.6L95 13.7V20h-1.8v-8.9z"/></svg>