<svg version="1.1" id="Слой_1" xmlns="http://www.w3.org/2000/svg" x="0" y="0" viewBox="0 0 103 32" style="enable-background:new 0 0 103 32" xml:space="preserve"><style>.st0{fill:#fff}</style><path class="st0" d="m76.7 4.7 3.5-.1v7.5c0 .2 0 .3.1.4.2.1.3.2.5.2h.6v.7h-4.3v-.7h.6c.2 0 .4-.1.6-.2.1-.2.2-.4.2-.6V6.6c0-.3-.1-.6-.3-.8-.3-.2-.6-.3-.9-.3h-4.1v5.6c0 .4.1.8.3 1.1.2.3.5.4.9.4s.8-.2 1.1-.6c.4-.6.5-1.3.5-2h.6c0 1.2-.3 2-.8 2.6-.5.6-1.2.9-1.9.8-.6 0-1.2-.2-1.7-.6-.4-.4-.6-1-.6-1.6V5.5h-1.5v-.6c.6-.1 1.2-.4 1.6-.9.6-.8.9-1.9.9-2.9h.6v3.6h3.5zM27.8.3h10.6l.3 3.6H38c-.2-1.5-.3-1.8-.8-2.4-.6-.5-1.6-.5-2.5-.5H32c-.2 0-.4.1-.5.2-.1.2-.2.3-.2.5v4.5h1.2c.6 0 1.2-.2 1.5-.7.4-.6.7-1.3.6-2.1h.6v6.4h-.6c0-1.1-.2-1.8-.6-2.3-.4-.3-1-.5-1.6-.5h-1.1v5.1c0 .2.1.3.2.5.2.1.4.2.7.2h2.1c2.3 0 3.7-.8 4-3.7h.7l-.2 4.4h-11v-.7h.6c.3 0 .6 0 .8-.2.2-.1.2-.3.2-.6V1.8c0-.2-.1-.4-.2-.5-.2-.2-.4-.3-.6-.3h-.8V.3z"/><path class="st0" d="M38.2 4.7H43v.6c-.4 0-.7 0-1.1.2-.1.1-.2.2-.2.4 0 .1 0 .3.1.4l2.3 5.2 2.1-5v-.3c0-.5-.4-.7-1.3-.8v-.7h3.6v.6c-.3 0-.6.1-.9.3-.2.2-.4.4-.5.7l-3.2 7.4h-.5L40 6.1c-.1-.2-.2-.4-.5-.6-.4-.1-.9-.2-1.3-.2v-.6zM54.8 5.7c-.8-.8-1.8-1.3-3-1.3-1.1 0-2.2.5-2.9 1.3-1.6 2-1.6 4.8 0 6.7.7.8 1.8 1.3 2.9 1.3.8 0 1.5-.2 2.1-.6.6-.4 1.2-.9 1.5-1.6.4-.8.6-1.6.5-2.5.2-1.2-.3-2.4-1.1-3.3zm-1.2 6.4c-.4.6-1.1 1-1.8 1s-1.4-.4-1.7-1c-.4-.7-.7-1.7-.7-3.1 0-1.4.2-2.4.7-3 .4-.6 1-1 1.7-1s1.4.3 1.8.9c.4.6.7 1.6.7 2.9 0 1.6-.3 2.6-.7 3.3z"/><path class="st0" d="M58.9.2v12c0 .1.1.3.2.4.2.1.4.2.6.2h.6v.7H56v-.7h.5c.2 0 .5-.1.6-.2.1-.2.2-.4.2-.6V2c0-.3-.1-.5-.3-.7-.2-.2-.5-.3-.8-.3h-.8V.3l3.5-.1zM63.3 4.5v5.8c0 .6.2 1.2.5 1.6.4.4.9.6 1.4.6.7 0 1.3-.3 1.8-.8.5-.6.8-1.3.7-2.1V6.3c0-.3-.1-.5-.3-.7-.4-.2-.8-.3-1.2-.3v-.6l3.1-.2v7.2c0 .3.1.6.3.8.2.2.5.3.8.3h.6v.6h-3l-.2-1.7c-.4.5-1 1-1.6 1.4-.5.3-1 .5-1.6.5-.7 0-1.5-.3-2-.8s-.8-1.4-.8-2.7V6.3c0-.3-.1-.6-.4-.8-.4-.2-.8-.2-1.2-.2v-.6c.1 0 3.1-.2 3.1-.2zM79.2.5c.3 0 .5.1.7.3.2.2.3.5.3.8 0 .3-.1.5-.3.7-.4.4-1.1.4-1.5 0-.2-.3-.3-.6-.3-1 .2-.4.6-.7 1.1-.8zM88.9 5.7c-.8-.8-1.8-1.3-3-1.3-1.1 0-2.2.5-2.9 1.3-1.6 2-1.6 4.8 0 6.7.7.8 1.8 1.3 2.9 1.3.8 0 1.5-.2 2.1-.6.6-.4 1.2-.9 1.5-1.6.4-.8.6-1.6.5-2.5.2-1.2-.3-2.4-1.1-3.3zm-1.2 6.4c-.4.6-1.1 1-1.8 1s-1.4-.4-1.7-1c-.4-.7-.7-1.7-.7-3.1 0-1.4.2-2.4.7-3 .4-.6 1-1 1.7-.9.7 0 1.4.3 1.8.9.4.6.7 1.6.7 2.9 0 1.5-.2 2.5-.7 3.2z"/><path class="st0" d="m89.9 4.7 2.9-.2c.2.6.2 1.3.3 1.9.3-.6.8-1.1 1.4-1.4.5-.3 1.2-.5 1.8-.5.5 0 1 .1 1.5.3.4.3.7.6.9 1.1.2.6.3 1.1.3 1.7v4.3c0 .2.1.5.2.7.2.2.5.2.7.2h.3v.7h-3.9v-.7h.1c.3 0 .6 0 .9-.2.2-.1.3-.4.2-.6V8.2c0-.6-.1-1.3-.4-1.8-.3-.6-.9-.9-1.6-.8-.7 0-1.3.3-1.8.8-.4.6-.7 1.4-.6 2.2v3.2c0 .2.1.5.2.7.2.2.5.2.7.2h.2v.7h-3.9v-.7h.2c.2 0 .5 0 .7-.2.2-.1.2-.3.2-.5V6.4c0-.3-.1-.6-.3-.9-.2-.2-.6-.3-.9-.3h-.4l.1-.5zM42.7 16.3l.8-1.4h.6l.3 5.5h-.6c-.5-1.6-1-2.7-1.7-3.4-.7-.8-1.7-1.3-2.8-1.4-.8 0-1.6.2-2.2.7-.7.5-1.2 1.2-1.5 2-.4 1.1-.6 2.3-.5 3.5-.1 1.2.1 2.3.5 3.4.3.8.7 1.5 1.4 2 .6.4 1.3.7 2.1.6.9.1 1.8-.3 2.5-.9.6-.6.9-1.5.9-2.4v-1.3c0-.2-.1-.4-.2-.5-.2-.1-.5-.2-.8-.2h-1.2V22H46v.7h-.4c-.3 0-.5 0-.7.2-.2.1-.2.3-.2.5v5.3H44c-.2-.8-.4-1.6-.7-2.4-.4.7-1 1.3-1.7 1.7-.7.4-1.4.6-2.2.6-1.1 0-2.3-.3-3.2-.9-3.1-2-4.1-6-2.3-9.2.6-1.1 1.4-2 2.4-2.6.9-.6 2-.9 3.1-1 .6 0 1.1.1 1.7.3.5.2 1.1.6 1.6 1.1zM85 27.6c-.3 0-.5 0-.7-.2-.2-.2-.2-.4-.2-.7v-4.3c0-.6-.1-1.1-.4-1.7-.2-.4-.5-.8-.9-1.1-.4-.2-.9-.4-1.5-.3-.6 0-1.3.2-1.8.5-.6.4-1 .8-1.4 1.4 0-.6-.1-1.3-.3-1.9l-2.9.2v.6h.5c.3 0 .6.1.9.3.2.2.3.5.3.8v5.7c0 .2-.1.4-.2.5-.2.1-.4.2-.7.2h-1.5c-.2 0-.4-.1-.5-.2-.1-.1-.2-.3-.1-.4v-7.5l-3.1.1v.7h.4c.3 0 .6.1.9.3.2.2.3.5.3.8v5.5c0 .2-.1.4-.2.6-.2.1-.4.2-.6.2h-1.4c-.3 0-.6-.1-.8-.2-.1-.1-.2-.3-.2-.5v-4.3c0-.9-.2-1.7-.8-2.4-.5-.5-1.1-.8-1.8-.7-.6 0-1.2.2-1.7.5-.6.4-1 .9-1.4 1.5-.1-.6-.5-1.1-.9-1.5-.4-.3-1-.5-1.5-.5-.6 0-1.1.1-1.6.4-.6.4-1.1.9-1.4 1.4 0-.6-.1-1.2-.3-1.9H55v.6c.3 0 .7.1 1 .3.2.2.3.4.2.7v5.7c0 .2-.1.4-.2.5-.2.1-.4.2-.6.2h-.5c-.2 0-.4 0-.6-.1-.2 0-.4-.2-.5-.3-.2-.2-.2-.5-.2-.8v-4.8c0-.6-.3-1.3-.8-1.7-.7-.5-1.5-.7-2.4-.7-1 0-1.9.2-2.7.8-.7.5-1 1.1-1 1.7 0 .3.1.6.3.8.2.2.5.3.8.3.3 0 .5-.1.7-.3.2-.2.3-.4.3-.7 0-.2-.1-.5-.3-.7-.1-.1-.2-.3-.2-.4 0-.2.1-.3.4-.5.4-.2.9-.3 1.4-.3.5 0 1 .2 1.4.5.4.3.6.7.6 1.2V23c-1.5.1-2.9.5-4.3 1.2-1.1.6-1.6 1.4-1.6 2.3 0 .6.2 1.1.7 1.5.6.4 1.3.6 2 .6.6 0 1.1-.1 1.6-.3.6-.3 1.1-.7 1.6-1.3.2.6.3.8.6 1.1.3.2 1.1.2 1.6.2h4.9v-.7h-.5c-.3 0-.5 0-.8-.2-.1-.1-.2-.4-.2-.6v-3.5c0-.8.3-1.6.8-2.2.4-.5.9-.7 1.5-.7.5 0 .9.2 1.2.6.3.6.5 1.2.5 1.9v4c0 .2-.1.4-.2.5-.2.1-.5.2-.7.2h-.5v.7h4.5v-.7h-.6c-.2 0-.5 0-.6-.2-.1-.1-.2-.4-.2-.6V23c0-.5.2-1 .4-1.4.2-.4.4-.7.7-.9.3-.2.7-.3 1.1-.3.5 0 .9.2 1.2.5.3.4.5 1 .5 1.5v4.4c0 .2-.1.4-.2.6-.2.1-.5.2-.8.2h-.4v.7h13.5v-.7H79c-.3 0-.5 0-.7-.2-.2-.2-.2-.4-.2-.7v-3.2c0-.8.2-1.6.7-2.2.4-.5 1.1-.9 1.8-.8.6 0 1.3.3 1.6.8.3.6.4 1.2.4 1.8v3.8c0 .2-.1.4-.2.6-.3.2-.6.2-.9.2h-.1v.7h3.9v-.7H85zM51.2 27c-.5.5-1.2.8-1.9.8-.4 0-.7-.1-1-.4-.3-.3-.4-.7-.4-1.1 0-.6.2-1.2.7-1.6.7-.5 1.8-.8 3.4-1.1v1.2c.1.8-.2 1.6-.8 2.2zM72.4 15.4c.3 0 .5.1.7.3.4.4.4 1 0 1.4-.4.4-1.1.4-1.5 0-.2-.3-.3-.6-.3-1 .2-.4.6-.7 1.1-.7zM95.8 18.8c-.1-.1-.2-.2-.4-.3-.2-.1-.4-.1-.7-.1-.6 0-2.3.9-2.9 1.6l-1.2-.6c-.4-.1-.8-.2-1.3-.2-.9 0-1.9.3-2.6.9-.6.5-1 1.3-1 2.1 0 .5.1 1 .4 1.4.3.4.7.8 1.2 1.1-.5.1-.9.4-1.3.8-.3.3-.4.7-.4 1 0 .4.2.8.5 1.1.4.3.9.6 1.4.7-.6.1-1.2.3-1.6.7-.3.3-.5.6-.5 1 0 .5.3 1 .8 1.3.6.5 1.6.7 3 .7 1.6 0 2.8-.4 3.7-1.1.6-.5.9-1.2.9-1.9 0-.6-.3-1.2-.8-1.6-.5-.4-1.4-.6-2.5-.6h-2.3c-.4 0-.8 0-1.1-.2-.2-.1-.3-.3-.3-.6s.1-.5.4-.7c.5-.2.9-.3 1.4-.2h1c.6 0 1.2-.2 1.7-.5.5-.2 1-.6 1.3-1.1.3-.4.4-.9.4-1.4 0-.3 0-.6-.1-.9-.1-.3-.3-.7-.6-1 .5-.4 1-.7 1.5-.9.1 0 .2.1.3.3.1.3.2.4.3.5.4.4 1 .4 1.4 0 .5-.3.4-.9 0-1.3zm-5.9 9.5c.6 0 1.1 0 1.6.2.3.1.6.3.8.5.2.2.2.5.2.7 0 .4-.3.8-.8 1.2-.7.4-1.6.6-2.4.5-.7 0-1.4-.1-2.1-.5-.3-.2-.6-.6-.6-1 0-.5.3-.9.7-1.2.7-.3 1.5-.4 2.6-.4zm.9-4.3-.2.2c-.8.6-1.9.6-2.6-.2-.4-.5-.6-1.2-.5-1.8 0-.6.2-1.2.5-1.7.3-.4.8-.6 1.4-.6.5 0 1 .2 1.4.6.4.5.6 1.1.5 1.7.1.6-.1 1.3-.5 1.8z"/><path d="M22.1 26.9h-.4v-.6h.5c.1.1.1.1.1.2.2.3 0 .4-.2.4m.7-.3c0-.1-.1-.4-.2-.4-.1-.1-.4-.1-.6-.1h-.6V28h.4v-.7h.2l.4.7h.4l-.4-.7c.3-.2.4-.4.4-.7m-.7 1.9c-.8 0-1.4-.7-1.4-1.4 0-.8.7-1.4 1.4-1.4s1.4.7 1.4 1.4-.6 1.4-1.4 1.4m0-3.3c-1 0-1.8.8-1.8 1.8s.8 1.8 1.8 1.8 1.8-.8 1.8-1.8-.9-1.8-1.8-1.8" style="fill:#a3a3a3"/><linearGradient id="SVGID_1_" gradientUnits="userSpaceOnUse" x1="246.377" y1="-1278.488" x2="244.654" y2="-1294.588" gradientTransform="matrix(1 0 0 -1 -233.17 -1269.536)"><stop offset="0" style="stop-color:#dadcdf"/><stop offset="1" style="stop-color:#a8a8a8"/></linearGradient><path d="M3.1 1.7c8.6-4.6 19.7.3 20.5 12-15.9 1.2-17.9-6-20.5-12z" style="fill:url(#SVGID_1_)"/><linearGradient id="SVGID_2_" gradientUnits="userSpaceOnUse" x1="247.768" y1="-1278.639" x2="246.045" y2="-1294.739" gradientTransform="matrix(1 0 0 -1 -233.17 -1269.536)"><stop offset="0" style="stop-color:#dadcdf"/><stop offset="1" style="stop-color:#a8a8a8"/></linearGradient><path d="M3.1 26.8c8.6 4.6 19.7-.3 20.6-11.9-16-1.4-18 5.9-20.6 11.9z" style="fill:url(#SVGID_2_)"/><radialGradient id="SVGID_3_" cx="241.58" cy="-1280.474" r="16.44" gradientTransform="matrix(1 0 0 -1 -233.17 -1269.536)" gradientUnits="userSpaceOnUse"><stop offset="0" style="stop-color:#c2c2c2"/><stop offset=".22" style="stop-color:#bdbdbd"/><stop offset=".46" style="stop-color:#b0b0b0"/><stop offset=".72" style="stop-color:#999"/><stop offset=".99" style="stop-color:#7a7a7a"/><stop offset="1" style="stop-color:#787878"/></radialGradient><path d="M20.7 5.4C16.5 0 9-1.6 3.1 1.7c2.4 5.4 4.2 11.7 16 12.1 1.4-2.5 2-5.5 1.6-8.4zM6 20.8c.4 0 .7.1 1 .1 4.6 0 8.9-2.3 11.5-6.2-7.1.4-10.4 3-12.5 6.1z" style="fill:url(#SVGID_3_)"/></svg>