<svg width="20" height="20" fill="none" xmlns="http://www.w3.org/2000/svg"><path d="M15 9.785a.834.834 0 0 0-.433-.525l-2.825-1.4.758-5.241a.834.834 0 0 0-1.483-.625l-5.833 7.5a.833.833 0 0 0-.142.725.833.833 0 0 0 .492.558l3.558 1.425-.758 5.183a.834.834 0 0 0 .525.892.833.833 0 0 0 1-.317l5-7.5A.835.835 0 0 0 15 9.785Z" fill="#137cec"/><path d="M15 9.785a.834.834 0 0 0-.433-.525l-2.825-1.4.758-5.241a.834.834 0 0 0-1.483-.625l-5.833 7.5a.833.833 0 0 0-.142.725.833.833 0 0 0 .492.558l3.558 1.425-.758 5.183a.834.834 0 0 0 .525.892.833.833 0 0 0 1-.317l5-7.5A.835.835 0 0 0 15 9.785Z" fill="#137cec"/></svg>