<svg version="1.1" id="Слой_1" xmlns="http://www.w3.org/2000/svg" x="0" y="0" viewBox="0 0 103 32" style="enable-background:new 0 0 103 32" xml:space="preserve"><style>.st5{fill:#fff}</style><g transform="matrix(.07 0 0 .07 -12.643 -26.49)"><linearGradient id="SVGID_1_" gradientUnits="userSpaceOnUse" x1="72838.047" y1="-59465.047" x2="73035" y2="-59465.047" gradientTransform="matrix(.07 0 0 -.07 -4915.072 -3693.018)"><stop offset="0" style="stop-color:#ee344d"/><stop offset="1" style="stop-color:#f89927"/></linearGradient><path d="M293.6 485.8c3.6 0 6.6-3 6.6-6.6V460c0-3.6-3-6.6-6.6-6.6-3.6 0-6.6 3-6.6 6.6v19.2c0 3.6 3 6.6 6.6 6.6z" style="fill:url(#SVGID_1_)"/><linearGradient id="SVGID_2_" gradientUnits="userSpaceOnUse" x1="72940.211" y1="-59716.254" x2="73135.445" y2="-59716.254" gradientTransform="matrix(.07 0 0 -.07 -4915.072 -3693.018)"><stop offset="0" style="stop-color:#ee344d"/><stop offset="1" style="stop-color:#f89927"/></linearGradient><path d="M267 503.3c3.6 0 6.6-3 6.6-6.6v-19.2c0-3.6-3-6.6-6.6-6.6s-6.6 3-6.6 6.6v19.2c0 3.7 3 6.6 6.6 6.6z" style="fill:url(#SVGID_2_)"/><linearGradient id="SVGID_3_" gradientUnits="userSpaceOnUse" x1="72877.023" y1="-59219.852" x2="73073.055" y2="-59219.852" gradientTransform="matrix(.07 0 0 -.07 -4915.072 -3693.018)"><stop offset="0" style="stop-color:#ee344d"/><stop offset="1" style="stop-color:#f89927"/></linearGradient><path d="M267 458.9c3.6 0 6.6-3 6.6-6.6v.2c0-3.6-3-6.6-6.6-6.6s-6.6 3-6.6 6.6v-.2c0 3.6 3 6.6 6.6 6.6z" style="fill:url(#SVGID_3_)"/><linearGradient id="SVGID_4_" gradientUnits="userSpaceOnUse" x1="72862.188" y1="-59928.043" x2="73056.445" y2="-59928.043" gradientTransform="matrix(.07 0 0 -.07 -4915.072 -3693.018)"><stop offset="0" style="stop-color:#ee344d"/><stop offset="1" style="stop-color:#f89927"/></linearGradient><path d="M320.2 508.5c3.6 0 6.6-3 6.6-6.6v.2c0-3.6-3-6.6-6.6-6.6-3.6 0-6.6 3-6.6 6.6v-.2c-.1 3.6 2.9 6.6 6.6 6.6z" style="fill:url(#SVGID_4_)"/><linearGradient id="SVGID_5_" gradientUnits="userSpaceOnUse" x1="72795.516" y1="-61653.094" x2="72994.836" y2="-61653.094" gradientTransform="matrix(.07 0 0 -.07 -4915.072 -3693.018)"><stop offset="0" style="stop-color:#ee344d"/><stop offset="1" style="stop-color:#f89927"/></linearGradient><path d="M373.3 557.7c-3.6 0-6.6 3-6.6 6.6v3.4c-.2 3.5-3.1 6.2-6.6 6.2-3.6 0-6.6-3-6.6-6.6v-16.6c0-3.6-3-6.6-6.6-6.6s-6.6 3-6.6 6.6v.4c0 3.6-3 6.6-6.6 6.6s-6.6-3-6.6-6.6v-27.8c0-3.6-3-6.6-6.6-6.6-3.6 0-6.6 3-6.6 6.6v10.6c-.1 3.7-3.4 6.6-6.6 6.6-3.6 0-6.6-3-6.6-6.6V504c0-3.6-3-6.6-6.6-6.6-3.6 0-6.6 3-6.6 6.6v26c0 3.6-3 6.6-6.6 6.6s-6.6-3-6.6-6.6v-9.3c0-3.6-3-6.6-6.6-6.6s-6.6 3-6.6 6.6v20c0 3.6-3 6.6-6.6 6.6-3.6 0-6.6-3-6.6-6.6v-27.8c0-3.6-3-6.6-6.6-6.6-3.6 0-6.6 3-6.6 6.6v42.6c0 3.6-3 6.6-6.6 6.6s-6.6-3-6.6-6.6v-11.2c0-3.6-3-6.6-6.6-6.6-3.6 0-6.6 3-6.6 6.6v31.2c0 3.6-3 6.6-6.6 6.6-3.6 0-6.6-3-6.6-6.6v-10.3c0-3.6-3-6.6-6.6-6.6s-6.6 3-6.6 6.6l-.1 10.3v115.1l99.7 57.5 99.6-57.6V564.4c-1.2-3.7-4.1-6.7-7.8-6.7zm-46.1 112.9h-31.3v-23.9h-31.3v23.9h-31.3V596h31.3v25h31.3v-25.1h31.3v74.7z" style="fill:url(#SVGID_5_)"/></g><path class="st5" d="M27 12.2v3.6h-3.3v-3.6h-2.5v9.5h2.5v-3.8H27v3.8h2.6v-9.5zM37.5 21.7h2.6l-2.8-9.5H33.4l-2.8 9.5h2.6l.5-1.6H37l.5 1.6zm-3.3-3.5 1.2-3.9 1.2 3.9h-2.4zM56.5 21.7h2.6l-2.8-9.5H52.4l-2.8 9.5h2.6l.5-1.6H56l.5 1.6zm-3.3-3.5 1.2-3.9 1.2 3.9h-2.4zM47.6 16.9c1-.2 1.5-.7 1.5-1.9v-.5c0-1.8-1.2-2.3-3.2-2.3h-4.8v9.5h5.3c2 0 2.8-.6 2.8-2.4v-.5c0-1.2-.6-1.8-1.6-1.9zm-4-2.6h2.3c.4 0 .7.3.7.7v.3c0 .4-.3.7-.7.7h-2.3v-1.7zm3.1 4.6c0 .4-.3.7-.7.7h-2.4v-1.9H46c.4 0 .7.3.7.7v.5zM59.8 21.7v-9.5H64l2.7 7.2h.1l-.1-7.2h2.6v9.5h-4.4l-2.6-7.3h-.1l.1 7.3zM73 19.6v-1.9h4V16h-4v-1.7h4.4v-2.1h-6.9v9.5h7v-2.1zM85.5 17.9c.9-.2 1.3-.7 1.3-2v-1.3c-.2-1.7-.9-2.4-3.9-2.4h-4.3v9.5h2.6v-2.5h2c.6 0 .9.5.9 1v1.4h2.6v-1.9c0-.8-.6-1.5-1.4-1.6H85V18l.5-.1zm-1.3-2c0 .9-.3 1.1-.7 1.1h-2.3v-2.6h1.9c.9 0 1.1.4 1.1 1v.5zM96.6 17.1V15.2c-.1-1.3-.8-2.4-1.8-2.7l-.3-.1c-.4-.1-.7-.2-1.1-.2H91c-.4 0-.8.1-1.1.2l-.3.1c-1 .3-1.7 1.4-1.8 2.7V19c.1 1.2.8 2.1 1.8 2.4l.3.1c.4.1.7.2 1.1.2h2.4c.4 0 .8-.1 1.1-.2l.3-.1c1-.3 1.7-1.2 1.8-2.4v-1.9c0 .1 0 0 0 0zm-2.6-.4v1.8c0 .2 0 .3-.1.5-.1.3-.3.5-.6.6-.7.1-1.4.1-2.1 0-.3-.1-.4-.3-.6-.6-.1-.2-.1-.3-.1-.5v-3c0-.2 0-.3.1-.5.1-.3.3-.5.6-.6.7-.1 1.4-.1 2.1 0 .3.1.4.3.6.6.1.2.1.3.1.5v1.2zM99.3 14.6h-.6v-1.7h-.6v-.5h1.8v.5h-.6v1.7zm3.7 0h-.6v-1.7l-.6 1.7h-.5l-.6-1.7.1 1.7h-.6v-2.2h.9l.4 1.4.4-1.4h1l.1 2.2z"/></svg>