<svg xmlns="http://www.w3.org/2000/svg" viewBox="0 0 103 32" style="enable-background:new 0 0 103 32" xml:space="preserve"><path d="M6.8 13.2h2.9v2.4l4.7.1V2.3c0-.1-.1-.3-.2-.3H10c-.2 0-.2.1-.2.3v6.4h-3V2.3c0-.2-.1-.3-.2-.3H2.4c-.1 0-.2.1-.2.3v13.2l4.6.1v-2.4zm18.4-11c0-.1-.1-.2-.2-.2h-4.6c-.1 0-.2 0-.2.2l-3.9 13.6 12.8.3-3.9-13.9zm-3.7 11.4 1.2-7.7 1.2 7.7h-2.4zm25.7 2.3 2-3 1.5 3.7 4.8.1L52 8.9l4.5-6.6c.1-.2 0-.3-.1-.3h-4.8c-.1 0-.2.1-.2.1l-4.2 6.7V2.2c0-.1-.1-.2-.2-.2h-3.9c-.1 0-.2.1-.2.3v14.2l4.3.1v-.7zm22.6-1.6c0-7.1-7.9-4.5-7.9-7.3 0-.8.7-1.2 1.6-1.2 1.1 0 2.2.5 3.2 1.6 0 .1.1.1.2 0v-.1l2.2-3c.1-.1.1-.3 0-.4-1.3-1.7-3.3-2.6-5.4-2.6-2.9 0-6.1 1.4-6.1 6.1 0 7.4 8 4.5 8 7.5 0 .9-.8 1.4-1.8 1.4-1.3 0-2.7-.7-4-2.5-.1-.1-.2-.1-.3 0l-2.1 3 11.9.3c.3-.9.5-1.8.5-2.8zm9.8-12.1c0-.1-.1-.2-.2-.2h-4.6c-.1 0-.2 0-.2.2l-4.3 15 13.6.3-4.3-15.3zm-3.7 11.4 1.2-7.7 1.2 7.7h-2.4zm16.5-3.5 1.2 7.7 5 .1L103 2.3c0-.2 0-.3-.1-.3h-4.1c-.1 0-.2.1-.2.2l-2.2 9.1-1.8-9.1c0-.1-.1-.2-.2-.2h-3.8c-.1 0-.2.1-.2.2l-1.8 9.1-2.2-9.1c0-.1-.1-.2-.2-.2H82c-.1 0-.2.1-.1.3l4.3 15.3 5.1.1 1.1-7.6zM40.8 15h-.1c-.6.9-1.6 1.4-2.6 1.3-2.3 0-3.3-2.3-3.3-5.2 0-2.7.9-5.1 3.4-5.1 1 0 2 .5 2.6 1.3h.1v-5c0-.1-.1-.2-.2-.3-.9-.3-1.8-.4-2.7-.4-5 0-8.2 4.4-8.2 9.9 0 1.6.3 3.3.9 4.8l10.2.3-.1-1.6zM7.6 20.7c0 .1.1.2.2.2H12c.1 0 .2-.1.2-.2v-4.2l-4.7-.1.1 4.3zm-7.4.2h4.2c.1 0 .2-.1.2-.2v-4.5L0 16.1v4.6c0 .1.1.2.2.2zm12.9 0h4.2c.1 0 .2-.1.2-.2l.5-2.4h4.8l.5 2.4c0 .1.1.2.2.2h4.2c.1 0 .2-.1.1-.3l-1.1-3.8-12.8-.3-1.2 4.1c.1.2.2.3.4.3zm36.8-.1c0 .1.1.2.2.2h4.4c.1 0 .2-.1.1-.3l-1.4-3.1-4.8-.1 1.5 3.3zm-9.1.1h3.9c.1 0 .2-.1.2-.2v-3.4l-4.3-.1v3.5c0 .1.1.2.2.2zm14-2.5c1.5 2 3.9 3.2 6.4 3.2 2.5 0 4.9-1.2 5.9-3.7l-11.9-.3-.4.4c-.1.1-.1.3 0 .4zm12.6 2.5h4.2c.1 0 .2-.1.2-.2l.5-2.4h4.8l.5 2.4c0 .1.1.2.2.2H82c.1 0 .2-.1.1-.3l-.7-2.4-13.6-.3-.8 2.7c.2.2.3.3.4.3zm24.4-.2c0 .1.1.2.2.2h3.6c.1 0 .2-.1.2-.2l.6-2.1-5-.1.4 2.2zm-6.9.2h3.6c.1 0 .2-.1.2-.2l.4-2.3-5.1-.1.7 2.4c0 .2 0 .2.2.2zm-49.1.8c.9 0 1.8-.1 2.6-.4.1 0 .2-.1.2-.3v-3.9l-10.2-.3c1.3 3 4.2 4.9 7.4 4.9zM6.4 26.9H4.8v-.7c0-.1-.1-.2-.2-.2h-.4c-.1-.1-.2 0-.2.1v3.3c0 .1.1.2.2.2h.3c.1 0 .2-.1.2-.2v-1h-.4v-1h2v2.1c0 .7-.4 1.1-1.3 1.1H3.7c-.9 0-1.3-.4-1.3-1.1V26c0-.7.4-1.1 1.3-1.1H5c.9 0 1.3.4 1.3 1.1v.9zm17.1 3.7-.2-.9h-1.4l-.2.9h-1.6l1.5-5.7h2l1.5 5.7h-1.6zm-1.3-2h.9l-.4-2.1-.5 2.1zm18.2 2H39v-5.7h1.7l1 3 1-3h1.7v5.7H43V27l-.7 2.4h-1.1l-.8-2.4v3.6zm18.2-5.7h1.6v5.7h-1.6v-5.7zm18.5 0h1.5v5.7h-1.4l-1.3-3v3h-1.5v-5.7h1.4l1.3 3v-3zm19.7 2h-1.6v-.7c0-.1-.1-.2-.2-.2h-.3c-.1 0-.2.1-.2.2v3.3c0 .1.1.2.2.2h.3c.1 0 .2-.1.2-.2v-1h-.5v-1h2.1v2.1c0 .7-.4 1.1-1.3 1.1h-1.3c-.9 0-1.3-.4-1.3-1.1V26c0-.7.4-1.1 1.3-1.1h1.3c.9 0 1.3.4 1.3 1.1v.9z" style="fill:#fff"/></svg>