<svg version="1.1" id="Слой_1" xmlns="http://www.w3.org/2000/svg" x="0" y="0" viewBox="0 0 103 32" style="enable-background:new 0 0 103 32" xml:space="preserve"><style>.st0{fill:#fff}</style><path class="st0" d="M3.9 23.6c1.1 0 2.1-.3 2.8-.8.8-.5 1.3-1.2 1.7-2.1.4-.9.6-2.3.6-4.3V4.7H5.9v12.1c0 1.6-.1 2.6-.4 3-.3.4-.8.7-1.4.7s-1.2-.3-1.5-.9c-.3-.4-.4-1.3-.4-2.3l-2.9.4c0 2.1.4 3.6 1.3 4.6s1.8 1.3 3.3 1.3zM15.4 23.3v-8h6.4v-3.1h-6.4V7.8h7.4V4.7H12.3v18.7h3.1zm16.5 0V7.8h4.6V4.7H24.2v3.2h4.6v15.5h3.1zm12 0 3-14 3 14h3.3L57 4.7h-3.1l-2.4 13-2.7-13h-3.7l-2.8 12.8-2.2-12.8h-3.2l3.7 18.7h3.3z" transform="translate(.827 2.36)"/><path class="st0" d="M62.8 13.8c.4 0 .8-.1 1.1-.3.3-.2.5-.5.7-.8.1-.4.2-.9.2-1.7V6.2h-1.3V11c0 .6 0 1-.2 1.2-.1.2-.3.3-.6.3s-.4-.1-.6-.4c0-.1-.1-.4-.1-.9l-1.2.2c0 .8.2 1.4.5 1.8.4.4.8.6 1.5.6zm5.8 0c.6 0 1.1-.1 1.5-.4.4-.3.6-.6.7-1.1.1-.4.2-1.2.2-2.2V6.2h-1.3v4.3c0 .7 0 1.1-.1 1.3s-.2.4-.4.5c-.2.1-.4.2-.7.2-.4 0-.6-.1-.8-.3-.2-.2-.4-.4-.4-.8V6.2H66v4c0 1.1.1 1.9.2 2.3s.4.8.8 1c.4.2.9.3 1.6.3zm5.9 0c.8 0 1.5-.2 1.9-.7s.6-1 .6-1.7c0-.4-.1-.8-.2-1.2-.1-.3-.4-.6-.6-.8s-.9-.2-1.5-.4-1-.3-1.1-.4c-.2-.1-.2-.3-.2-.5s.1-.4.3-.5c.2-.1.4-.2.8-.2s.6.1.8.2c.2.2.3.4.4.8H77c0-.7-.2-1.3-.6-1.7S75.2 6 74.5 6c-.5 0-.9.1-1.2.3-.3.2-.6.4-.8.8-.2.4-.3.7-.3 1.1 0 .4.1.7.2 1 .1.3.4.5.6.7.2.2.6.4 1.2.5.6.2.9.3 1.1.4.1.1.3.2.4.3s.1.3.1.4c0 .3-.1.5-.3.7s-.5.3-.9.3c-.8 0-1.2-.5-1.3-1.4l-1.3.2c.1 1.7.9 2.5 2.5 2.5zm6.1-.1V7.5h1.8V6.2h-4.9v1.3h1.8v6.2h1.3zm6.2 0v-3.2h2.5V9.3h-2.5V7.5h2.9V6.2h-4.2v7.5h1.3zm6.7.1c.9 0 1.6-.3 2.1-.9.6-.7.9-1.7.9-2.9s-.3-2.2-.8-2.9c-.6-.7-1.3-1-2.1-1-.6 0-1.1.1-1.6.4-.4.3-.8.7-1 1.3-.3.6-.4 1.3-.4 2.2 0 1.2.3 2.2.9 2.9.5.6 1.1.9 2 .9zm0-1.3c-.5 0-.9-.2-1.2-.6s-.5-1.1-.5-1.9c0-.9.2-1.5.5-1.9.3-.4.7-.6 1.2-.6s.9.2 1.2.6c.3.4.4 1.1.4 1.9 0 .9-.2 1.5-.5 2-.2.4-.6.5-1.1.5zm5.2 1.2v-3.1h.3c.3 0 .5 0 .6.1.1 0 .3.2.4.3.1.1.3.5.7 1.1l.9 1.6h1.5l-.8-1.5c-.3-.6-.5-1-.7-1.2-.2-.2-.4-.4-.7-.6.5-.1.9-.3 1.2-.7.3-.4.4-.8.4-1.4 0-.4-.1-.8-.3-1.2-.2-.4-.4-.5-.7-.7-.3-.1-.8-.2-1.4-.2h-2.6v7.5h1.2zm.9-4.3h-.9V7.5H100.6c.2 0 .3.1.4.3.1.1.1.4.1.6 0 .3 0 .4-.1.6-.1.1-.2.3-.4.3s-.4.1-1 .1zM63.9 25.7v-6.2h1.8v-1.3h-4.9v1.3h1.8v6.2h1.3zm3.9 0v-3.3h2.4v3.3h1.3v-7.5h-1.3v2.9h-2.4v-2.9h-1.3v7.5h1.3zm9.6 0v-1.3H74v-2.1h3V21h-3v-1.7h3.3V18h-4.6v7.5c0 .2 4.7.2 4.7.2zm5.6 0 1.2-5.6 1.2 5.6h1.3l1.5-7.5H87l-1 5.2-1-5.2h-1.5l-1.1 5.1-.9-5.1h-1.3l1.5 7.5H83zm7.1 0v-7.5h-1.3v7.5h1.3zm2.4 0v-4.9l2.5 4.9h1.3v-7.5H95v5l-2.5-5h-1.2v7.5h1.2z"/></svg>