<svg version="1.1" id="Слой_1" xmlns="http://www.w3.org/2000/svg" x="0" y="0" viewBox="0 0 103 32" style="enable-background:new 0 0 103 32" xml:space="preserve"><style>.st1{fill:#fff}</style><path d="M14.5 1.5C6.5 1.5 0 8 0 16s6.5 14.5 14.5 14.5S29 24 29 16 22.5 1.5 14.5 1.5zm.2 15-1.5 5.1h8.1c.2 0 .4.2.4.4v.1l-.7 2.4c-.1.2-.3.4-.5.4H8.1l2.1-7-2.3.7.5-1.6 2.3-.7 2.9-9.9c.1-.3.3-.4.6-.4h3.1c.2 0 .4.2.4.4v.1l-2.5 8.3 2.3-.7-.5 1.7-2.3.7z" style="fill:#0664ed"/><path class="st1" d="M37.4 5.9h-.9c-.2 0-.3.1-.3.3l-2.3 18.5c0 .2 0 .3.2.3h.9c.1 0 .3-.1.3-.2l2.3-18.5c.1-.3 0-.4-.2-.4zM42.1 11.2h-.9c-.1 0-.3.1-.3.2l-1.6 13.2c0 .2.1.3.2.3h.9c.1 0 .3-.1.3-.2l1.6-13.2c0-.2 0-.3-.2-.3zM81.5 11c-2.4-.1-4.5 1.5-5.1 3.9-.2 1.1-.4 2.1-.5 3.2-.1 1.1-.2 2.1-.2 3.2s.4 2.1 1.1 2.8c.7.7 1.7 1.1 3 1.1 1.2 0 2.3-.4 3.2-1.1s1.5-1.7 1.8-2.8c.2-1.1.5-2.1.6-3.2.1-1.1.2-2.1.2-3.2s-.4-2.1-1.1-2.8c-.9-.8-1.9-1.1-3-1.1zm2.5 5.8c-.1.7-.1 1.1-.1 1.3-.2 1.4-.3 2.3-.5 2.9-.2.8-.6 1.6-1.3 2.1-.6.5-1.4.8-2.3.8-1.5.1-2.7-1-2.8-2.5v-.3c0-.6 0-1.1.1-1.7.1-.7.1-1.1.1-1.3.2-1.3.3-2.3.5-2.9.2-.8.6-1.6 1.3-2.1.6-.5 1.4-.8 2.3-.8 1.5-.1 2.7 1 2.8 2.5v.3c0 .6 0 1.1-.1 1.7zM90.7 11.2h-.9c-.2 0-.3.1-.3.3l-1.7 13.2c0 .2.1.3.2.3h1c.1 0 .3-.1.3-.2l1.6-13.2c.1-.3 0-.4-.2-.4zM102.1 12c-.6-.6-1.5-1-2.6-1-.7 0-1.4.1-2 .4-.6.3-1.2.7-1.6 1.3-.1.1-.1.1-.1-.1l.1-1.2c0-.2 0-.3-.2-.3h-.9c-.1 0-.3.1-.3.2l-1.7 13.2c0 .2 0 .3.2.3h.9c.2 0 .3-.1.3-.3l1.2-9.4c.2-.8.6-1.5 1.2-2.1.6-.5 1.4-.8 2.2-.8.7 0 1.4.2 1.9.8.5.6.7 1.3.7 2v.6l-1.1 8.9v.2c.1.1.1.1.2.1h.9c.1 0 .3-.1.3-.2l1.2-9.2c0-.4.1-.6.1-.8 0-.9-.3-1.9-.9-2.6zM42.7 5.9c-.5-.3-1.2-.1-1.5.5-.3.5-.1 1.2.5 1.5.5.3 1.2.1 1.5-.5.2-.5 0-1.2-.5-1.5zM91.4 5.9c-.5-.3-1.2-.1-1.5.5-.3.5-.1 1.2.5 1.5.5.3 1.2.1 1.5-.5.2-.5 0-1.2-.5-1.5zM69.8 11c-1.2 0-2.3.4-3.3 1.1-.9.7-1.5 1.7-1.8 2.8-.2 1.1-.4 2.1-.6 3.2-.1 1.1-.2 2.1-.2 3.2s.4 2.1 1.1 2.8c.7.7 1.7 1.1 3 1.1 1.2 0 2.3-.4 3.2-1.1.9-.7 1.5-1.7 1.8-2.8 0-.1 0-.2.1-.3 0-.1 0-.1-.1-.1h-1.1c-.1 0-.1 0-.2.1v.1c-.2.8-.6 1.6-1.3 2.1-.6.5-1.4.8-2.3.8-1.5.1-2.7-1-2.8-2.5v-.3c0-.6 0-1.1.1-1.7.1-.6.1-1.1.1-1.3.2-1.3.3-2.3.5-2.9.2-.8.6-1.6 1.3-2.1.6-.5 1.4-.8 2.3-.8 1.5-.1 2.7 1 2.8 2.5v.3c0 .1.1.2.2.2h1.1c.1 0 .2-.1.2-.1V15c0-1.1-.4-2.1-1.1-2.8-.9-.9-1.9-1.2-3-1.2zM60.7 12.1c-.8-.7-1.9-1.1-3-1.1-2.4-.1-4.5 1.5-5.1 3.9-.2 1.1-.4 2.1-.6 3.2-.2 1.1-.2 2.1-.2 3.2s.4 2.1 1.1 2.8c.7.7 1.7 1.1 3 1.1 1.2 0 2.3-.4 3.2-1.1.9-.7 1.5-1.7 1.8-2.8 0-.1 0-.2.1-.3 0-.1 0-.1-.1-.1h-1.1c-.1 0-.1 0-.2.1v.1c-.2.8-.6 1.6-1.3 2.1-.6.5-1.4.8-2.3.8-1.5.1-2.7-1-2.8-2.5v-.3c0-.5 0-1 .1-1.5l8.1-2.5c.1 0 .2-.2.2-.3 0-.4.1-1.1.1-1.9.2-1.1-.3-2.2-1-2.9zm-.3 3.8c0 .1-.1.1-.1.2l-6.7 2.1c.2-1.3.3-2.3.5-2.9.2-.8.6-1.6 1.3-2.1.6-.5 1.4-.8 2.3-.8.8 0 1.5.2 2.1.8.7.7.7 1.6.6 2.7zM48.8 23.5c.1-.1.2 0 .3.1v.1l-.1.9c0 .1-.1.2-.2.3-.9.4-1.9.4-2.8 0-1-.5-1.3-1.5-1.2-2.7l1.2-9.6.2-1.4.4-3.2c0-.1.1-.3.3-.3h.9c.2.1.2.2.2.3l-.5 4.3h2.8c.2 0 .2.1.2.3l-.1.6c0 .1 0 .1-.1.2-.1 0-.1.1-.2.1h-2.8l-1 7.9c-.1.8-.2 1.6.2 2 .6.6 1.7.4 2.3.1z"/></svg>