<svg version="1.1" id="Слой_1" xmlns="http://www.w3.org/2000/svg" x="0" y="0" viewBox="0 0 103 32" style="enable-background:new 0 0 103 32" xml:space="preserve"><style>.st0{fill:#fff}</style><path class="st0" d="M38.2 1.1h1.9l3.7 8.6 3.8-8.6h1.9v11h-1.3V2.9l-3.9 9.2h-.8l-3.9-9.2v9.2h-1.3v-11zM55.8 1.1H57l4.7 11h-1.5l-1.1-2.7h-5.5l-1.1 2.7H51l4.8-11zm.6 1.7-2.3 5.4h4.5l-2.2-5.4zM68.4 3.1c-.4-.7-1.2-1-2-1-1.1 0-2.3.5-2.3 1.8 0 1 .6 1.5 2.3 2 1.6.6 3.2 1.1 3.2 3.3 0 2.2-1.9 3.2-3.9 3.2-1.3 0-2.6-.4-3.4-1.5l1.1-.9c.5.8 1.4 1.2 2.3 1.2 1.1 0 2.4-.7 2.4-1.9 0-1.3-.9-1.6-2.9-2.2-1.6-.5-2.7-1.2-2.7-3C62.5 2 64.3.9 66.2.9c1.2 0 2.3.3 3.1 1.3l-.9.9zM79.5 3.4c-.7-.9-1.7-1.3-2.7-1.3-2.4 0-4.2 2.2-4.2 4.6 0 2.5 1.7 4.6 4.2 4.6 1.3 0 2.4-.5 3.2-1.5l1 .8c-1 1.3-2.4 1.9-4.2 1.9-3.1 0-5.6-2.4-5.6-5.8 0-3.2 2.3-5.8 5.6-5.8 1.5 0 2.9.5 3.9 1.7l-1.2.8zM82.1 6.6c0-3.3 2.4-5.8 5.7-5.8 3.3 0 5.7 2.5 5.7 5.8s-2.4 5.8-5.7 5.8c-3.3 0-5.7-2.4-5.7-5.8zm10 0c0-2.5-1.8-4.6-4.3-4.6-2.6 0-4.3 2-4.3 4.6 0 2.5 1.8 4.6 4.3 4.6 2.6 0 4.3-2 4.3-4.6zM103 2.4h-3.6v9.8h-1.3V2.4h-3.6V1.1h8.6v1.3zM47.5 30c-1.3.7-2.7 1-4.1 1-3.4 0-5.9-2.3-5.9-5.8s2.6-5.8 5.9-5.8c1.4 0 2.8.4 3.9 1.4l-1 1c-.7-.8-1.9-1.3-3-1.3-2.5 0-4.4 1.9-4.4 4.6 0 2.6 1.8 4.6 4.5 4.6.9 0 1.9-.2 2.7-.6v-3.4h-2.5v-1.2h3.8V30zM53.8 19.8H55l4.7 11h-1.5L57.1 28h-5.5l-1.1 2.7H49l4.8-10.9zm.6 1.6-2.3 5.4h4.5l-2.2-5.4zM61.2 19.8h1.9l3.7 8.6 3.8-8.6h1.9v11h-1.3v-9.2l-3.9 9.2h-.8l-3.9-9.2v9.2h-1.3v-11zM75.2 19.8h1.3v11h-1.3v-11zM79.3 19.8h1.6l6.4 9.1v-9.1h1.3v11H87l-6.4-9.1v9.1h-1.3v-11zM100.7 30c-1.3.7-2.7 1-4.1 1-3.4 0-5.9-2.3-5.9-5.8s2.6-5.8 5.9-5.8c1.4 0 2.8.4 3.9 1.4l-1 1c-.7-.8-1.9-1.3-3-1.3-2.5 0-4.4 1.9-4.4 4.6 0 2.6 1.8 4.6 4.5 4.6.9 0 1.9-.2 2.7-.6v-3.4h-2.5v-1.2h3.8V30z"/><path class="st0" d="M380.2 436.3c0-.7-.1-1.5-.3-2.2-.5.8-1.2 1.6-1.9 2.2 0 2.1-1.3 4-3.3 4.7-.4-.8-1.3-1.2-2.1-.9-.6.2-1.1.7-1.2 1.3-.9.3-1.4 1.3-1.1 2.2.3.9 1.3 1.4 2.2 1.2.5.4 1.1.6 1.7.4.8-.3 1.4-1.1 1.2-2 2.9-1.1 4.8-3.8 4.8-6.9z" transform="rotate(180 198.01 224.382)"/><path class="st0" d="M367.9 446h25.9v-9.7c.8-.6 1.4-1.3 1.9-2.2.2.7.3 1.4.3 2.2v12h-30.4v-12c0-4 3.3-7.3 7.3-7.3 1.5 0 3 .5 4.2 1.3-.1.8-.4 1.6-.9 2.2-2.1-1.8-5.3-1.6-7.1.5-.8.9-1.2 2.1-1.2 3.3v9.7z" transform="rotate(180 198.01 224.382)"/><path class="st0" d="M380.2 429.9c0 4-3.3 7.3-7.3 7.3-1.5 0-3-.5-4.2-1.3.1-.8.4-1.6.9-2.2 2.1 1.8 5.3 1.6 7.1-.5 1.8-2.1 1.6-5.3-.5-7.1-.5-.4-1-.7-1.5-.9-.4.8-1.3 1.2-2.1.9-.6-.2-1.1-.7-1.2-1.3-.9-.3-1.5-1.3-1.2-2.2.3-.9 1.3-1.5 2.2-1.2.5-.4 1.1-.6 1.7-.4.8.3 1.4 1.1 1.2 2 3 1 4.9 3.8 4.9 6.9zM381.4 429.9c0 .7.1 1.5.3 2.2.5-.8 1.2-1.6 1.9-2.2 0-2.1 1.3-4 3.3-4.7.4.8 1.3 1.2 2.1.9.6-.2 1.1-.7 1.2-1.3.9-.3 1.5-1.3 1.2-2.2s-1.3-1.5-2.2-1.2c-.5-.4-1.1-.6-1.7-.4-.8.3-1.4 1.1-1.2 2-2.9 1-4.9 3.8-4.9 6.9z" transform="rotate(180 198.01 224.382)"/><path class="st0" d="M381.4 436.3c0 3.1 2 5.9 4.9 6.9-.2.9.4 1.7 1.2 2 .6.2 1.3 0 1.7-.4.9.3 1.9-.2 2.2-1.2.3-.9-.2-1.9-1.2-2.2-.2-1-1.2-1.6-2.1-1.4-.5.1-1 .5-1.2 1-2.6-1-3.9-3.9-3-6.5 1-2.6 3.9-3.9 6.5-3 .6.2 1.1.5 1.5.9.5-.6.8-1.4.9-2.2-3.3-2.3-7.9-1.5-10.2 1.8-.7 1.3-1.2 2.8-1.2 4.3z" transform="rotate(180 198.01 224.382)"/><path class="st0" d="M396 429.9c0 4-3.3 7.3-7.3 7.3-1.5 0-3-.5-4.2-1.3.1-.8.4-1.6.9-2.2 2.1 1.8 5.3 1.6 7.1-.5.8-.9 1.2-2.1 1.2-3.3v-9.7h-25.9v9.7c-.8.6-1.4 1.3-1.9 2.2-.2-.7-.3-1.4-.3-2.2v-12.6H396v12.6z" transform="rotate(180 198.01 224.382)"/></svg>