<svg xmlns="http://www.w3.org/2000/svg" viewBox="0 0 103 32" style="enable-background:new 0 0 103 32" xml:space="preserve"><g transform="translate(0 15) scale(.26458)"><linearGradient id="a" gradientUnits="userSpaceOnUse" x1="3848.257" y1="-2970.905" x2="4236.292" y2="-2877.424" gradientTransform="matrix(.2646 0 0 -.2646 -1025.663 -768.882)"><stop offset="0" style="stop-color:#21e418"/><stop offset=".3" style="stop-color:#31b6e9"/><stop offset=".976" style="stop-color:#21e418"/></linearGradient><path d="M48.1-44.2C21.5-44.2 0-22.7 0 3.9c0 4.8.7 9.4 2.1 13.9.9-1.2 1.8-2.5 2.6-3.8C8 9.1 11.3 4.2 14.6-.8L17-4.6c.8-1.2 1.6-2.6 2.3-3.8 1.6-2.6 3.1-5.1 4.5-7.7.7-1.3 1.4-2.6 2.2-3.9s1.4-2.6 2.1-3.9c.7-1.3 1.4-2.6 2-3.9l1.9-4 .2-.3c1.1-2.1 3.6-3 5.8-2 1.6.9 2.6 2.6 2.5 4.4 0 2.3-.4 4.7-.6 7s-.3 4.7-.4 7.1c-.2 4.7-.3 9.4-.3 14.1s.3 9.3.7 13.8c.3 2.2.6 4.4 1.1 6.6.4 1.9 1 3.9 1.9 5.6.3.5.6 1.1 1.1 1.5.3.2.1.1.3.1h.2l.2-.1h.1l.3-.1c.1-.1.3-.2.4-.3.7-.5 1.3-1.1 1.9-1.9 1.4-1.7 2.7-3.4 3.9-5.2 1.2-1.9 2.4-3.9 3.5-5.9 2.3-4.1 4.4-8.2 6.4-12.4 1-2.1 2-4.2 3-6.4 1-2.1 1.9-4.3 2.8-6.4.9-2.2 3.4-3.3 5.6-2.4 1.4.5 2.4 1.8 2.6 3.3 0 .5.1 1.2.2 1.9l.3 2c.2 1.3.4 2.6.6 4 .4 2.6 1 5.3 1.7 7.8s1.6 5.1 2.6 7.6c1.1 2.5 2.4 4.8 4.1 6.9.4.5.3 1.2-.2 1.6s-1.1.4-1.4 0c-2.2-1.9-4.1-4.1-5.8-6.5S74 8.8 72.7 6.2c-.9-1.8-1.6-3.5-2.4-5.3-.5 1.1-1 2.1-1.5 3.1-2.1 4.3-4.2 8.6-6.7 13-1.2 2.3-2.5 4.4-3.9 6.5-1.4 2.2-3 4.3-4.7 6.3-1 1.1-2.1 2.1-3.3 3.1-.4.3-.7.5-1.1.7l-.8.4-.4.2h-.1l-.3.1h-.2l-.3.1c-.3.1-.4.2-.7.2l-1.6.3c-1.1.1-2.4-.1-3.4-.4s-2-1-2.9-1.7c-1.3-1.1-2.5-2.6-3.3-4.1-1.2-2.5-2.1-5.1-2.6-7.8-.5-2.5-.9-5-1.1-7.5-.5-4.9-.7-9.8-.8-14.7v-7c-.9 1.7-1.8 3.4-2.6 4.9-.7 1.3-1.4 2.6-2.2 4l-2.2 4c-3 5.3-6.1 10.5-9.3 15.7-2 3.4-4.1 6.7-6.3 10 14.6 22.2 44.4 28.4 66.6 13.8S103-.3 88.4-22.5c-9-13.5-24.1-21.7-40.3-21.7z" style="fill:url(#a)"/><linearGradient id="b" gradientUnits="userSpaceOnUse" x1="3864.178" y1="-3036.988" x2="4252.213" y2="-2943.507" gradientTransform="matrix(.2646 0 0 -.2646 -1025.663 -768.882)"><stop offset="0" style="stop-color:#21e418"/><stop offset=".3" style="stop-color:#31b6e9"/><stop offset=".976" style="stop-color:#21e418"/></linearGradient><path d="M137.8 21.2v-31.9h-.8l-10.2 32h-2.6l-10.2-32h-.8v31.9H109V-14h7.5l9.1 28 8.9-28h7.6v35.4l-4.3-.2z" style="fill:url(#b)"/><linearGradient id="c" gradientUnits="userSpaceOnUse" x1="3869.323" y1="-3058.347" x2="4257.357" y2="-2964.866" gradientTransform="matrix(.2646 0 0 -.2646 -1025.663 -768.882)"><stop offset="0" style="stop-color:#21e418"/><stop offset=".3" style="stop-color:#31b6e9"/><stop offset=".976" style="stop-color:#21e418"/></linearGradient><path d="M148.2-9.5V-14h4.6v4.6h-4.6zm0 30.7V-6h4.5v27.3h-4.5z" style="fill:url(#c)"/><linearGradient id="d" gradientUnits="userSpaceOnUse" x1="3876.608" y1="-3088.596" x2="4264.644" y2="-2995.115" gradientTransform="matrix(.2646 0 0 -.2646 -1025.663 -768.882)"><stop offset="0" style="stop-color:#21e418"/><stop offset=".3" style="stop-color:#31b6e9"/><stop offset=".976" style="stop-color:#21e418"/></linearGradient><path d="M180 12.3c0 5.3-2 9.3-10.8 9.3-11.1 0-11.7-6.3-11.7-14.1s.5-14.1 11.6-14.1c8.8 0 10.8 4.1 10.8 9.3h-4.2c0-4.3-1.5-6.4-6.6-6.4-6.9 0-7.2 3.7-7.2 11.1s.4 11.1 7.2 11.1c5.1 0 6.6-2.1 6.6-6.4l4.3.2z" style="fill:url(#d)"/><linearGradient id="e" gradientUnits="userSpaceOnUse" x1="3880.357" y1="-3104.146" x2="4268.392" y2="-3010.664" gradientTransform="matrix(.2646 0 0 -.2646 -1025.663 -768.882)"><stop offset="0" style="stop-color:#21e418"/><stop offset=".3" style="stop-color:#31b6e9"/><stop offset=".976" style="stop-color:#21e418"/></linearGradient><path d="M188.7-3.1c2.1-1.3 4.9-3.1 7.4-3.2.5-.1 1.1-.1 1.6-.1.7 0 1.3 0 2.1.1l-.3 3.3c-.7-.1-1.3-.1-1.9-.1-.5 0-1.1 0-1.7.1-2.4.1-4.9 1.9-6.8 2.9v21.4h-4.5V-6h3.5l.6 2.9z" style="fill:url(#e)"/><linearGradient id="f" gradientUnits="userSpaceOnUse" x1="3885.815" y1="-3126.8" x2="4273.85" y2="-3033.319" gradientTransform="matrix(.2646 0 0 -.2646 -1025.663 -768.882)"><stop offset="0" style="stop-color:#21e418"/><stop offset=".3" style="stop-color:#31b6e9"/><stop offset=".976" style="stop-color:#21e418"/></linearGradient><path d="M225.1 7.6c0 7.8-.6 14.1-11.9 14.1s-11.9-6.3-11.9-14.1.6-14.1 11.9-14.1 11.9 6.4 11.9 14.1zm-19.4 0c0 7.4.4 11.1 7.4 11.1s7.4-3.6 7.4-11.1-.4-11.1-7.4-11.1-7.4 3.6-7.4 11.1z" style="fill:url(#f)"/><linearGradient id="g" gradientUnits="userSpaceOnUse" x1="3895.441" y1="-3166.766" x2="4283.476" y2="-3073.285" gradientTransform="matrix(.2646 0 0 -.2646 -1025.663 -768.882)"><stop offset="0" style="stop-color:#21e418"/><stop offset=".3" style="stop-color:#31b6e9"/><stop offset=".976" style="stop-color:#21e418"/></linearGradient><path d="M233.3 27.6c1.7.2 3.9.3 6.3.3 6.9 0 7.8-1.9 7.8-9.1-2 1.1-4.9 2.5-7.8 2.6-10 .2-10.6-5.2-10.6-13.7s.5-14.1 10.1-14.1c3.3 0 6.3 1.5 8.6 3l.4-2.5h3.5v24.2c0 9.8-2.2 12.8-11.2 12.8-2.6 0-5.3-.3-7.8-.6l.7-2.9zM247.5-1c-1.9-1.2-4.4-2.5-6.8-2.5-6.6 0-7.1 3.7-7.1 11.1 0 7.2.4 10.7 7.1 10.7 2.4 0 4.9-1.3 6.8-2.3V-1z" style="fill:url(#g)"/><linearGradient id="h" gradientUnits="userSpaceOnUse" x1="3897.867" y1="-3176.83" x2="4285.902" y2="-3083.348" gradientTransform="matrix(.2646 0 0 -.2646 -1025.663 -768.882)"><stop offset="0" style="stop-color:#21e418"/><stop offset=".3" style="stop-color:#31b6e9"/><stop offset=".976" style="stop-color:#21e418"/></linearGradient><path d="m276.3 21.2-.4-2.5c-2.2 1.4-5.1 3-8.3 3-10 .2-10.6-5.5-10.6-14.1s.5-14.1 10.4-14.1c3.3 0 6.2 1.5 8.4 2.8l.4-2.4h3.5v27.3h-3.4zm-.9-22.4c-1.9-1.1-4.4-2.3-6.8-2.3-6.6 0-7.1 3.7-7.1 11.1s.4 11.1 7.1 11.1c2.4 0 4.9-1.3 6.8-2.5V-1.2z" style="fill:url(#h)"/><linearGradient id="i" gradientUnits="userSpaceOnUse" x1="3904.645" y1="-3204.966" x2="4292.68" y2="-3111.485" gradientTransform="matrix(.2646 0 0 -.2646 -1025.663 -768.882)"><stop offset="0" style="stop-color:#21e418"/><stop offset=".3" style="stop-color:#31b6e9"/><stop offset=".976" style="stop-color:#21e418"/></linearGradient><path d="M289.3-3.6c2-1.2 4.8-2.7 7.7-2.8 4.6-.2 7 1.1 8.1 3 2.1-1.3 4.9-2.9 8-3 9.3-.3 10 4.5 10 11.1v16.6h-4.5V4.9c0-5.6-.4-8.4-6.4-8.4-2.2 0-4.5 1.3-6.3 2.5.4 1.9.6 4 .5 6v16.3h-3.9V4.9c0-5.6-.4-8.4-6.4-8.4-2.1 0-4.4 1.3-6.2 2.3v22.4h-4.5V-6h3.5l.4 2.4z" style="fill:url(#i)"/><linearGradient id="j" gradientUnits="userSpaceOnUse" x1="3906.73" y1="-3213.629" x2="4294.765" y2="-3120.148" gradientTransform="matrix(.2646 0 0 -.2646 -1025.663 -768.882)"><stop offset="0" style="stop-color:#21e418"/><stop offset=".3" style="stop-color:#31b6e9"/><stop offset=".976" style="stop-color:#21e418"/></linearGradient><path d="M328.6-9.5V-14h4.6v4.6h-4.6zm.1 30.7V-6h4.5v27.3h-4.5z" style="fill:url(#j)"/><linearGradient id="k" gradientUnits="userSpaceOnUse" x1="3914.18" y1="-3244.546" x2="4302.215" y2="-3151.064" gradientTransform="matrix(.2646 0 0 -.2646 -1025.663 -768.882)"><stop offset="0" style="stop-color:#21e418"/><stop offset=".3" style="stop-color:#31b6e9"/><stop offset=".976" style="stop-color:#21e418"/></linearGradient><path d="M342.7-3.6c2.2-1.2 5.1-2.7 8.3-2.8 10-.3 10.6 4.5 10.6 11.1v16.6h-4.5V4.9c0-5.6-.4-8.4-7.1-8.4-2.4 0-4.9 1.3-6.8 2.4v22.4h-4.5V-6h3.5l.5 2.4z" style="fill:url(#k)"/><linearGradient id="l" gradientUnits="userSpaceOnUse" x1="3923.855" y1="-3284.707" x2="4311.889" y2="-3191.226" gradientTransform="matrix(.2646 0 0 -.2646 -1025.663 -768.882)"><stop offset="0" style="stop-color:#21e418"/><stop offset=".3" style="stop-color:#31b6e9"/><stop offset=".976" style="stop-color:#21e418"/></linearGradient><path d="M370.3 27.6c1.7.2 3.9.3 6.3.3 6.9 0 7.8-1.9 7.8-9.1-2 1.1-4.9 2.5-7.8 2.6-10 .2-10.6-5.2-10.6-13.7s.5-14.1 10.1-14.1c3.3 0 6.3 1.5 8.6 3l.4-2.5h3.5v24.2c0 9.8-2.2 12.8-11.2 12.8-2.6 0-5.3-.3-7.8-.6l.7-2.9zM384.4-1c-1.9-1.2-4.4-2.5-6.8-2.5-6.6 0-7.1 3.7-7.1 11.1 0 7.2.4 10.7 7.1 10.7 2.4 0 4.9-1.3 6.8-2.3V-1z" style="fill:url(#l)"/></g></svg>