<svg xmlns="http://www.w3.org/2000/svg" viewBox="0 0 103 32" style="enable-background:new 0 0 103 32" xml:space="preserve"><path d="M9.5 2c.9 0 3.7-.3 4.8 3.7.8 2.6 2 6.9 3.7 12.9h.7c1.8-6.3 3.1-10.6 3.8-12.9 1.2-4 4.1-3.7 5.3-3.7h9v28h-9.2V13.5H27L21.9 30H15L9.8 13.5h-.6V30H0V2h9.5zM50 2v16.6h.7L57 4.9C58.2 2.2 60.8 2 60.8 2h8.9v28h-9.4V13.5h-.7l-6.1 13.6c-1.2 2.7-3.9 2.9-3.9 2.9h-8.9V2H50zm52.2 13.3c-1.3 3.7-5.4 6.4-10 6.4h-9.9V30h-8.9V15.3h28.8z" style="fill:#37a72e"/><linearGradient id="a" gradientUnits="userSpaceOnUse" x1="-367.133" y1="306.017" x2="-367.426" y2="306.017" gradientTransform="matrix(102.6707 0 0 -39.6694 37796.805 12147.266)"><stop offset="0" style="stop-color:#1f5cd7"/><stop offset="1" style="stop-color:#02aeff"/></linearGradient><path d="M92.6 2H73c.5 6.3 5.9 11.6 11.4 11.6h18.4C103.9 8.4 100.2 2 92.6 2z" style="fill:url(#a)"/></svg>