<svg version="1.1" id="Слой_1" xmlns="http://www.w3.org/2000/svg" x="0" y="0" viewBox="0 0 103 32" style="enable-background:new 0 0 103 32" xml:space="preserve"><style>.st1{fill:#fff}</style><linearGradient id="SVGID_1_" gradientUnits="userSpaceOnUse" x1="52.696" y1="15.981" x2="65.453" y2="15.981"><stop offset="0" style="stop-color:#33b545"/><stop offset="1" style="stop-color:#2dcb42"/></linearGradient><path style="fill:url(#SVGID_1_)" d="M53.6 0v6.1h11.9v3.8h-9.1V14h7.7v3.8h-7.7v4.3h9.1v3.7H53.6V32h-.9V0z"/><path class="st1" d="M16.8 18.2V6.1h4v19.7h-3.6l-4.7-7.4-3-4.7v12.1H5.6V6.1h3.5l.1.1 4.3 6.6zM23.1 25.8V6.1h13v3.8H27V14h7.8v3.8H27v4.3h9.1v3.7h-13zM37.7 9.9V6.1h13.1v3.8h-4.5v15.9h-4V9.9h-4.6z"/><linearGradient id="SVGID_2_" gradientUnits="userSpaceOnUse" x1="67.446" y1="16.012" x2="82.707" y2="16.012"><stop offset="0" style="stop-color:#33b545"/><stop offset="1" style="stop-color:#2dcb42"/></linearGradient><path style="fill:url(#SVGID_2_)" d="M78.7 18.2v-12h4v19.6h-3.6l-4.7-7.3-3-4.7v12h-4V6.2H71l.1.1 4.3 6.6 3.3 5.3z"/><linearGradient id="SVGID_3_" gradientUnits="userSpaceOnUse" x1="84.336" y1="16.012" x2="97.438" y2="16.012"><stop offset="0" style="stop-color:#33b545"/><stop offset="1" style="stop-color:#2dcb42"/></linearGradient><path style="fill:url(#SVGID_3_)" d="M84.3 6.2h13.1V10h-4.5v15.8h-4V10h-4.6V6.2z"/></svg>