<svg width="18" height="18" fill="none" xmlns="http://www.w3.org/2000/svg"><path fill-rule="evenodd" clip-rule="evenodd" d="M3.294 5.83c1.545-.741 3.662-1.514 5.813-1.514 2.154 0 4.22.775 5.715 1.518.754.374 1.378.749 1.815 1.03a15.006 15.006 0 0 1 .649.443l.038.028.01.008.003.002h.002v.001l-.434.574-.435.575-.006-.005-.028-.02a13.606 13.606 0 0 0-.579-.394c-.402-.26-.98-.607-1.676-.953-1.407-.699-3.24-1.367-5.074-1.367-1.837 0-3.726.67-5.19 1.372a19.332 19.332 0 0 0-2.241 1.267 9.182 9.182 0 0 0-.125.085l-.03.02-.006.005h-.001l-.42-.585-.418-.585.001-.001.003-.002.011-.008.04-.027c.033-.024.082-.057.144-.099a20.771 20.771 0 0 1 2.42-1.37ZM.375 15.823h17.25v1.44H.375v-1.44Zm6.466-6.463H10.44v1.44H8.28v.712h1.44v1.44H8.28v.72h2.16v1.44H6.84V9.361Zm-5.747 0h1.96l.164.493.749 2.255V9.361h1.44v5.752h-1.96l-.163-.493-.75-2.255v2.748h-1.44V9.361Zm15.098-.102-.502 3.51-.254-.764-.683-2.049-.683 2.05-.26.779-.505-3.526-1.425.204.72 5.032.088.618H14.552l.164-.492.037-.111.037.11.164.493H16.81l.088-.618.72-5.032-1.425-.204Z" fill="#137cec"/></svg>