<svg version="1.1" id="Слой_1" xmlns="http://www.w3.org/2000/svg" x="0" y="0" viewBox="0 0 103 32" style="enable-background:new 0 0 103 32" xml:space="preserve"><style>.st0{fill:#fff}.st1{fill:#3e72ef}</style><path class="st0" d="M41.9 18.9c-.5.9-1.1 1.6-1.9 2.1-.8.5-1.7.8-2.8.8-1 0-1.9-.3-2.8-.8-.8-.5-1.5-1.2-1.9-2.1-.5-.9-.7-1.8-.7-2.9s.2-2 .7-2.9c.5-.9 1.1-1.6 1.9-2.1.8-.5 1.7-.8 2.8-.8 1 0 1.9.3 2.8.8.8.5 1.5 1.2 1.9 2.1.5.9.7 1.8.7 2.9s-.2 2-.7 2.9zm-1.8-4.8c-.3-.6-.7-1-1.2-1.4s-1.1-.5-1.7-.5c-.6 0-1.2.2-1.7.5s-.9.8-1.2 1.4c-.3.6-.4 1.2-.4 1.9s.1 1.4.4 1.9c.3.6.7 1 1.2 1.4.5.3 1.1.5 1.7.5.6 0 1.2-.2 1.7-.5s.9-.8 1.2-1.4c.3-.6.4-1.2.4-1.9.1-.7-.1-1.3-.4-1.9zM50.8 13.9c.4.6.6 1.5.6 2.7v4.2c0 .3-.1.5-.3.7-.2.2-.4.3-.7.3-.3 0-.5-.1-.7-.3-.2-.2-.3-.4-.3-.7v-4.2c0-.6-.1-1-.4-1.4-.2-.3-.7-.5-1.3-.5-.6 0-1.1.2-1.4.5-.3.4-.5.8-.5 1.3v4.2c0 .3-.1.5-.3.7-.2.2-.4.3-.7.3s-.5-.1-.7-.3c-.2-.2-.3-.4-.3-.7v-6.9c0-.3.1-.5.3-.7.2-.2.4-.3.7-.3s.5.1.7.3c.2.2.3.4.3.7v.4c.3-.4.7-.7 1.1-1 .5-.3 1-.4 1.5-.4 1.2.1 2 .5 2.4 1.1zM60.6 17.8c-.2.2-.4.2-.7.2h-5.2c.1.6.4 1.1.9 1.5.5.4 1 .5 1.5.5.4 0 .8 0 1-.1l.6-.3c.1-.1.2-.2.3-.2.2-.1.4-.1.5-.1.2 0 .4.1.6.2.2.2.2.3.2.6s-.1.5-.4.8c-.3.2-.7.4-1.2.6-.5.2-1 .3-1.5.3-.9 0-1.7-.2-2.3-.6-.7-.4-1.2-.9-1.5-1.5s-.5-1.4-.5-2.2c0-.9.2-1.7.6-2.4.4-.7.9-1.2 1.5-1.6.6-.4 1.3-.5 2-.5s1.4.2 2 .6c.6.4 1.1.9 1.5 1.5.4.6.6 1.3.6 2.1-.2.2-.3.4-.5.6zm-5.9-1.4h4.1v-.1c0-.4-.3-.8-.6-1.1-.4-.3-.8-.5-1.3-.5-1.3 0-2 .6-2.2 1.7zM69.5 10.5c.2.2.3.4.3.7 0 .3-.1.5-.3.7-.2.2-.4.2-.7.2h-2.5v8.7c0 .3-.1.5-.3.7-.2.2-.4.3-.7.3s-.5-.1-.7-.3c-.2-.2-.3-.4-.3-.7v-8.7h-2.5c-.3 0-.5-.1-.7-.3-.2-.2-.3-.4-.3-.7 0-.3.1-.5.3-.6.2-.2.4-.3.7-.3h7c.2.1.5.2.7.3zM76.6 19.6c-.4.7-.9 1.2-1.6 1.6-.7.4-1.4.6-2.2.6-.8 0-1.5-.2-2.2-.6-.7-.4-1.2-.9-1.6-1.6-.4-.7-.6-1.4-.6-2.3 0-.8.2-1.6.6-2.3.4-.7.9-1.2 1.6-1.6.7-.4 1.4-.6 2.2-.6.8 0 1.5.2 2.2.6.7.4 1.2.9 1.6 1.6.4.7.6 1.4.6 2.3 0 .9-.2 1.6-.6 2.3zM75 16c-.2-.4-.5-.7-.9-.9-.4-.2-.8-.3-1.2-.3-.4 0-.8.1-1.2.3s-.7.5-.9.9c-.2.4-.3.9-.3 1.4s.1 1 .3 1.4c.2.4.5.7.9.9.4.2.8.3 1.2.3.4 0 .8-.1 1.2-.3.4-.2.7-.5.9-.9.2-.4.3-.9.3-1.4s-.1-1-.3-1.4zM85.6 13.2c.2.2.3.4.3.7v4.2c0 1.1-.3 2-.9 2.7-.6.6-1.5 1-2.7 1-1.2 0-2.1-.3-2.7-1-.6-.6-.9-1.5-.9-2.7v-4.2c0-.3.1-.5.3-.7.2-.2.4-.3.7-.3.3 0 .5.1.7.3.2.2.3.4.3.7v4.2c0 .6.1 1.1.4 1.4.3.3.7.5 1.3.5.6 0 1-.2 1.3-.5.3-.3.4-.8.4-1.4v-4.2c0-.3.1-.5.3-.7.2-.2.4-.3.7-.3.1.1.3.1.5.3zM93.6 13.4c.5.3.8.7.8 1.1 0 .2-.1.4-.2.6s-.3.3-.5.3-.3 0-.4-.1c-.1 0-.2-.1-.3-.2-.1-.1-.2-.1-.3-.2-.1-.1-.3-.1-.5-.1s-.4-.1-.5-.1c-.8 0-1.4.2-1.9.7-.4.5-.7 1.1-.7 1.9 0 .8.2 1.4.7 1.9.5.5 1 .8 1.7.8.5 0 .9-.1 1.2-.2.1 0 .2-.1.3-.2.1-.1.2-.1.3-.2.1 0 .2-.1.3-.1.3 0 .5.1.6.3s.2.4.2.6c0 .3-.1.5-.4.7s-.7.4-1.2.5c-.5.1-1 .2-1.5.2-.8 0-1.5-.2-2.1-.6-.6-.4-1.1-.9-1.4-1.6-.3-.7-.5-1.4-.5-2.2 0-.9.2-1.6.5-2.3.4-.7.8-1.2 1.5-1.6s1.4-.6 2.2-.6c.8.2 1.5.4 2.1.7zM102.4 13.9c.4.6.6 1.5.6 2.7v4.2c0 .3-.1.5-.3.7-.2.2-.4.3-.7.3-.3 0-.5-.1-.7-.3s-.3-.4-.3-.7v-4.2c0-.6-.1-1-.3-1.4-.2-.3-.6-.5-1.2-.5s-1.1.2-1.4.5c-.3.4-.5.8-.5 1.3v4.2c0 .3-.1.5-.3.7-.2.2-.4.3-.7.3-.3 0-.5-.1-.7-.3-.2-.2-.3-.4-.3-.7v-9.5c0-.3.1-.5.3-.7.2-.2.4-.3.7-.3.3 0 .5.1.7.3s.3.4.3.7v3.1c.3-.4.6-.7 1.1-1 .4-.3.9-.4 1.5-.4 1.1 0 1.8.4 2.2 1z"/><path class="st1" d="M17.1 19.8c-.4.3-.5.9-.1 1.3.3.4.9.5 1.3.1 1.6-1.3 2.5-3.3 2.5-5.3 0-3.8-3.1-6.9-6.9-6.9s-7 3.1-7 7c0 2.1.9 4.1 2.6 5.4.4.3 1 .3 1.3-.1.3-.4.3-1-.1-1.3-3.7-3-1.6-9 3.1-9 4.7-.1 6.9 5.8 3.3 8.8zM19.9 24.5c2.6-1.9 4.3-5 4.3-8.5 0-.5-.4-.9-.9-.9s-.9.4-.9.9c0 2.9-1.4 5.4-3.6 6.9-.4.3-.5.9-.2 1.3.3.5.9.6 1.3.3z"/><path class="st1" d="M9.9 2.7c-.5.1-.8.7-.7 1.2s.7.8 1.2.6C18 2.2 25.7 8 25.7 15.9c0 .5.4.9.9.9s.9-.4.9-.9C27.6 6.7 18.7.1 9.9 2.7z"/><path class="st1" d="M20.4 7.9c-6.7-5.6-17-.7-17 8.1 0 5.8 4.7 10.5 10.5 10.5.5 0 .9-.4.9-.9s-.4-.9-.9-.9c-4.7 0-8.6-3.8-8.6-8.6 0-7.2 8.4-11.1 14-6.6.4.3 1 .3 1.3-.1.3-.6.2-1.2-.2-1.5z"/><path class="st1" d="M.9 15.1c-.5 0-.9.4-.9.9 0 7.6 6.2 13.8 13.8 13.8 3.2 0 6.4-1.1 8.9-3.2.4-.3.5-.9.1-1.3s-.9-.5-1.3-.1C19.4 27 16.6 28 13.8 28 7.3 28 1.9 22.6 1.9 16.1c0-.6-.4-1-1-1z"/></svg>