<svg xmlns="http://www.w3.org/2000/svg" viewBox="0 0 103 32" style="enable-background:new 0 0 103 32" xml:space="preserve"><path d="M37.2 21.6c0 .2-.1.3-.2.4-.1.1-.3.2-.4.2-.2 0-.3-.1-.4-.2-.1-.1-.2-.3-.2-.4v-11c0-.2.1-.3.2-.4.1-.1.3-.2.4-.2h3.1c.8 0 1.4.2 2 .5.6.3 1.1.8 1.4 1.4.3.6.5 1.3.5 2 0 .8-.2 1.4-.5 2-.3.6-.8 1.1-1.4 1.4-.6.3-1.3.5-2 .5h-2.5v3.8zm2.5-4.9c.5 0 1-.1 1.4-.3.4-.2.7-.6 1-1 .2-.4.4-.9.4-1.4 0-.5-.1-1-.4-1.4-.2-.4-.5-.8-1-1-.4-.2-.9-.4-1.4-.4h-2.5v5.5h2.5zm5.9-2.4c0-.2.1-.3.2-.4.1-.1.3-.2.4-.2s.3.1.4.2c.1.1.2.3.2.4v7.3c0 .2-.1.3-.2.4-.1.1-.2.2-.4.2s-.3-.1-.4-.2c-.1-.1-.2-.3-.2-.4v-7.3zm.6-4c.2 0 .4.1.6.2.2.2.2.4.2.6 0 .2-.1.4-.2.6-.2.2-.4.2-.6.2s-.4-.1-.6-.2c-.2-.2-.2-.4-.2-.6 0-.2.1-.5.2-.6.2-.1.4-.2.6-.2zm7.6 3.3c.8 0 1.5.2 2.2.6.7.4 1.2.9 1.6 1.6.4.7.6 1.4.6 2.2v3.7c0 .2-.1.3-.2.4-.1.1-.3.2-.4.2-.2 0-.3-.1-.4-.2-.1-.1-.2-.3-.2-.4v-.9c-.4.5-.8.9-1.4 1.2-.6.3-1.2.4-1.9.4-.8 0-1.5-.2-2.1-.6-.6-.4-1.1-.9-1.5-1.6-.4-.7-.5-1.4-.5-2.2s.2-1.5.6-2.2c.4-.7.9-1.2 1.6-1.6.4-.4 1.2-.6 2-.6zm0 7.6c.6 0 1.1-.1 1.6-.4.5-.3.9-.7 1.1-1.2.3-.5.4-1.1.4-1.7 0-.6-.1-1.2-.4-1.7-.3-.5-.6-.9-1.1-1.2-.5-.3-1-.4-1.6-.4-.6 0-1.1.1-1.6.4-.5.3-.9.7-1.1 1.2-.3.5-.4 1-.4 1.7 0 .6.1 1.2.4 1.7.3.5.7.9 1.1 1.2.4.2 1 .4 1.6.4zm9.6-7.6c.7 0 1.3.1 1.8.4.5.2.9.6 1.2 1 .1.1.1.3.1.4 0 .2-.1.3-.2.4-.1.1-.2.1-.3.1-.2 0-.4-.1-.5-.2-.5-.6-1.2-.9-2.1-.9-.6 0-1 .1-1.4.4-.3.2-.5.5-.5.9s.2.7.5.9c.3.2.9.4 1.7.5 1.1.2 1.9.5 2.4.9s.7.9.7 1.6c0 .5-.1.9-.4 1.3-.3.4-.7.7-1.2.9-.5.2-1.1.3-1.7.3-.6 0-1.3-.1-1.9-.3-.6-.2-1.1-.5-1.4-.9-.2-.4-.2-.5-.2-.7 0-.2.1-.3.2-.5.1-.1.3-.1.4-.1.2 0 .3.1.5.2.2.3.6.5 1 .7.4.2.9.2 1.4.2.7 0 1.3-.1 1.6-.4.4-.2.5-.6.6-1 0-.4-.2-.7-.5-.9-.4-.2-.9-.4-1.7-.6-1-.2-1.8-.5-2.3-.9-.5-.4-.7-.9-.7-1.5 0-.8.3-1.3.9-1.8.4-.2 1.1-.4 2-.4zm9.2 7.4c.2 0 .3.1.4.2.1.1.2.3.2.4 0 .2-.1.3-.2.4-.1.1-.3.2-.5.2h-.3c-.5 0-1-.1-1.5-.4-.4-.3-.8-.6-1-1.1-.2-.5-.4-1-.4-1.5V15h-1c-.2 0-.3 0-.4-.1-.1-.1-.1-.2-.1-.4s0-.3.1-.4c.1-.1.2-.1.4-.1h1v-2.4c0-.2.1-.3.2-.4.1-.1.3-.2.4-.2s.3.1.4.2c.1.1.2.3.2.4V14h1.8c.2 0 .3.1.4.2.1.1.2.2.2.4 0 .1-.1.3-.2.4h-2.2v4.2c0 .5.2 1 .5 1.3.3.3.7.5 1.2.5h.4zm6.3-7.4c.4 0 .8.1 1 .2.3.1.4.3.4.5v.1c0 .1-.1.2-.2.3-.1.1-.2.1-.4.1h-.9c-.8 0-1.4.2-1.9.6-.5.4-.7 1-.7 1.6v4.7c0 .2-.1.3-.2.4-.1.1-.2.2-.4.2s-.3-.1-.4-.2c-.1-.1-.2-.2-.2-.4v-7.3c0-.2.1-.3.2-.4.1-.1.2-.2.4-.2s.3.1.4.2c.1.1.2.2.2.4v.7c.3-.4.7-.8 1.2-1 .5-.4 1-.5 1.5-.5zm3.6.7c0-.2.1-.3.2-.4.1-.1.3-.2.4-.2s.3.1.4.2c.1.1.2.3.2.4v7.3c0 .2-.1.3-.2.4-.1.1-.2.2-.4.2s-.3-.1-.4-.2c-.1-.1-.2-.3-.2-.4v-7.3zm.6-4c.2 0 .4.1.6.2.2.2.2.4.2.6 0 .2-.1.4-.2.6-.2.2-.4.2-.6.2s-.4-.1-.6-.2c-.2-.2-.2-.4-.2-.6 0-.2.1-.5.2-.6.1-.1.3-.2.6-.2zM93 21.2c.1.1.2.3.2.4 0 .1-.1.3-.2.4-.1.1-.2.1-.4.1-.1 0-.2 0-.3-.1-.1 0-.2-.1-.2-.2l-2.6-3.3-2.6 3.5c-.1.1-.2.2-.4.2s-.3-.1-.4-.2c-.1-.1-.1-.2-.1-.4s.1-.3.2-.4l2.7-3.4-2.6-3.2c-.1-.1-.2-.3-.2-.4 0-.2 0-.3.1-.4.1-.1.2-.2.4-.2s.3.1.5.2l2.5 3.2 2.5-3.1c.1-.2.3-.3.5-.3s.3.1.4.2c.1.1.2.2.2.4s-.1.3-.2.5l-2.6 3.2 2.6 3.3z" style="fill:#fff"/><path d="M24.5 13.1c-.1 0-.1 0-.2.1-.6.3-1.1.7-1.5 1.3-.3.6-.4 1.3-.3 2 0 .1 0 .2.1.3s.1.2.1.3c.2.6.6 1.1 1.1 1.5l.1.1c.1.1.2.1.3.2.1 0 .1.1.2.1.4.1.7.2 1.1.2h.1c.4 0 .8-.1 1.2-.3.7-.3 1.2-.8 1.5-1.5.3-.7.4-1.5.1-2.2-.2-.7-.7-1.3-1.3-1.7-.6-.5-1.4-.7-2.1-.5h-.1c-.1.1-.3.1-.4.1z" style="fill:#ffd833"/><path d="M22.8 13c-1.1-1.7-1.7-3.5-1.9-5.3-1.5-1.3-4-1.9-7.4-1.9-.1 1.4.1 2.8.6 4.1.4.8.8 1.6 1.5 2.3.2.2.5.5.7.6 1.5 1.2 3.3 1.9 5.3 2.2.2-.7.6-1.5 1.2-2zm-6.5 8c-1 1.5-1.6 3.6-1.9 6.3 1.5.2 2.9.2 4.1-.2 1.1-.3 2.1-.9 2.9-1.6l.2-.2c1.3-1.4 2.2-3.2 2.7-5.4-.6-.2-1.2-.5-1.6-1-2 1.4-4.1 2.1-6.4 2.1zm-.6-7.2-.6-.6c-1.6.4-3.3 1.4-5.2 3 .8 1.2 1.8 2.1 3 2.8 1 .6 2.1.9 3.2 1h.3c2 0 3.9-.6 5.8-1.8-.4-.6-.5-1.3-.6-2-2.3-.3-4.3-1.1-5.9-2.4zm12-1.3c1.1-1.7 1.7-3.4 1.8-5.1v-.6c0-1.3-.4-2.5-1-3.6C27.9 2 27 1 25.8.1c-1.3.9-2.2 1.9-2.8 3-.6 1.1-1 2.3-1 3.6v.7c.1 1.7.7 3.4 1.7 5 .6-.3 1.3-.5 2-.4.7 0 1.4.2 2 .5zm1.4 12.1c-.2-1.7-.8-3.4-1.7-5-.6.3-1.2.4-1.8.4h-.1c-.5 2.4-1.5 4.3-3 5.9.3 1.8 1.4 3.7 3.1 5.8 1.1-.8 2.1-1.9 2.8-3.1.5-.9.8-1.9.9-2.9 0-.1-.1-.1-.1-.2s0-.5-.1-.9z" style="fill:#ff4081"/></svg>