<svg version="1.1" id="Слой_1" xmlns="http://www.w3.org/2000/svg" x="0" y="0" viewBox="0 0 103 32" style="enable-background:new 0 0 103 32" xml:space="preserve"><style>.st1{fill:#00b7ff}.st2{fill:#ff4200}</style><path d="M56.1 8.4H7.4c-3.6 0-5 2.8-5.5 4.4L.2 19c-.2.8-.2 1.7.1 2.5.5 1.3 1.7 2.5 4 2.5h47l4.8-15.6z" style="fill:#fff"/><path class="st1" d="M56.1 8.4H7.4c-3.6 0-5 2.8-5.5 4.4L.2 19c-.2.8-.2 1.7.1 2.5.5 1.3 1.7 2.5 4 2.5h47l4.8-15.6zm-44.8 9.8H9l-.8 2.4H5.7L8.8 11h4.8c1.3 0 2.2 1 1.7 2.4 0 0-.6 1.8-.9 2.5-.8 2.4-3.1 2.3-3.1 2.3zm2.7 2.3 3.1-9.5h2.6l-2.3 7.1h2.3l.8-2.4H23l-1.6 4.8H14zm15.7 0h-2.4l.7-2.3h-2.3l-.8 2.4h-2.5l2.4-7.3c.4-1.2 1.7-2.3 3.3-2.3h2.4c1.3 0 2 1.1 1.7 2.4l-2.5 7.1zm10-4.5c-.4 1.1-1.6 2.2-3.2 2.2l-.7 2.2h-2.5l.7-2.2c-1.3 0-2-1.1-1.7-2.4l1.6-4.9h2.6L35 15.7h2.2l1.7-4.8h2.5L39.7 16zm2.9-4.8h3.3l-1 2.9h-3.4l1.1-2.9zm7.9 9.3H48l1.3-4.3H47l-1.3 4.3h-2.6l1.4-4.5c.4-1.2 1.7-2.3 3.3-2.3h2.4c1.3 0 2 1.1 1.7 2.4l-1.4 4.4z"/><path class="st1" d="M9.7 15.8h2.4l.8-2.4h-2.4z"/><path class="st2" d="M91.3 4h-5.6c-4.1-.1-7.5 2.7-8.5 5.9l-2.9 9c-3.3 7.8.8 9.1 3.6 9.1h4.7c3.5 0 7.3-2.5 8.3-5.7L94.8 10c1.1-2.8-.6-6-3.5-6zm-6.4 18.1h-5.5l3.8-11.9h5.5l-3.8 11.9z"/><path class="st1" d="M26.4 15.8h2.4l.7-2.4h-2.3zM98.7 8.4h-1.3L92.5 24H95c3.2 0 5.5-1.8 6-4.5 0 0 1.5-4.7 1.9-6.5.5-2.4-.9-4.6-4.2-4.6z"/><path class="st2" d="M63.4 28h-4.7c-5.2-.2-5.3-3.5-3.7-9.1l2.9-9c.7-2.5 4.1-5.6 8.2-5.5H77l-1.7 5.7-.1.2H63.9l-1 3-1.9 5.8-.1.4-.9 2.6h6l1-3h-3l1.9-5.9h8.5l-2.6 9c-1.1 3.1-4.1 5.8-8.4 5.8z"/></svg>