<svg version="1.1" id="Слой_1" xmlns="http://www.w3.org/2000/svg" x="0" y="0" viewBox="0 0 103 32" style="enable-background:new 0 0 103 32" xml:space="preserve"><style>.st0{fill:#f6931d}.st1{fill:#fff}</style><path class="st0" d="M77.3 10.5c-4.2-1.7-9-.8-12.2 2.5-3.2 3.2-4.1 8-2.4 12.2 1.8 4.2 5.9 6.9 10.4 6.8 6.1 0 11.1-5 11.1-11.2 0-4.5-2.8-8.6-6.9-10.3zm-4.2 20.3c-5.5 0-9.9-4.5-9.9-10s4.4-9.9 9.9-10c5.5 0 10 4.5 10 10 0 5.6-4.5 10-10 10z"/><path class="st0" d="M76.5 17c-3.8.2-5.3-4.3-1.9-4.5 3.6-.3 5.6 4.2 1.9 4.5zM72.4 8.5c-1.9.1-3.8.6-5.4 1.6-.2-.8-1.3-3.6-4-5.2 2 .1 3.7 1.2 4.6 2.9 0 0-1.1-4.5-.8-7.9 2.1 2.6 3.8 7 3.8 7-.2-2 .6-3.9 2.2-5.1-1.4 3-.6 6-.4 6.7z"/><path class="st1" d="m87.9 20-.2-1.3-.5 1.3h-.3l-.4-1.3-.3 1.3h-.3l.3-2h.4l.5 1.4.4-1.4h.4l.4 2h-.4zM85.4 20H85v-1.6h-.4V18h1.1v.4h-.3V20zM80 23.6h-1.1v-2.4l-1.7-3.3h1.2l1.1 2.1 1-2.1h1.2L80 21.2v2.4zM75.8 17.9h-1.1l-2.2 5.7h1.1l.5-1.2h2.4l.5 1.2h1l-2.2-5.7zm-1.3 3.5.8-1.9.8 1.9h-1.6zM69.1 17.9h1.1v4.7h1.6v1h-2.7v-5.7zM68.1 18.7c-.2-.3-.4-.4-.7-.6-.4-.1-.9-.2-1.4-.2h-1v5.7h1.1v-2.4c.4 0 .8 0 1.2-.1.3-.1.6-.3.9-.5.2-.3.3-.6.3-1-.1-.3-.2-.6-.4-.9zm-.9 1.2c-.1.1-.2.2-.3.2-.2 0-.4.1-.6.1H66V19h.3c.2 0 .5 0 .7.1.2.1.3.3.3.5 0 .1 0 .2-.1.3zM58.6 18.7c-1.1 0-2 .8-2 1.9v.1c0 .4.1.7.3 1 .2.3.4.5.7.7.3.2.7.3 1 .3.3 0 .6-.1.9-.2.3-.2.6-.4.9-.7l.8.8c-.4.4-.8.7-1.2.9-.4.2-.9.3-1.3.2-.8 0-1.6-.3-2.3-.8-1.2-1.2-1.2-3.1-.1-4.3.2-.2.5-.4.7-.6.5-.3 1-.4 1.6-.4 1 0 1.9.4 2.6 1.2l-.8.7c-.5-.4-1.1-.7-1.8-.8z"/><path style="fill:#8f8780" d="M61.2 18.8v.1-.1z"/><path class="st1" d="M53.4 17.8h1.2v5.8h-1.2v-5.8zM51.5 23.6h-1.1v-4.7h-1.1v-1.1h3.3v1.1h-1.1v4.7zM47.2 17.8H46l-2.3 5.8h1.2l.5-1.2h2.4l.5 1.2h1.2l-2.3-5.8zm-1.4 3.6.8-2 .8 2h-1.6zM41.3 19.9l-1.2 3.7h-1L37.9 20l-.7 3.6h-1.1l1-5.8h1.1l1.4 4.1 1.4-4.1h1.1l1 5.8H42zM34.2 23.4c-.5.2-1 .4-1.5.4-.6 0-1.1-.1-1.6-.4-.5-.3-.9-.7-1.1-1.1-.3-.5-.4-1-.4-1.6 0-.7.3-1.5.8-2 .6-.7 1.5-1 2.4-1 .5 0 1 .1 1.4.3.4.2.8.5 1.1.8l-.8.8c-.4-.5-1.1-.8-1.8-.8-.5 0-1.1.2-1.5.6-.4.4-.6.9-.6 1.4 0 .5.2 1.1.6 1.4.4.4.9.6 1.5.6.3 0 .7-.1 1-.2.3-.2.5-.4.6-.8h-1.7v-1h3v.2c0 1-.5 1.9-1.4 2.4zM27 17.8h-1.1l-2.3 5.8h1.2l.5-1.2h2.4l.5 1.2h1.2L27 17.8zm-1.3 3.6.8-2 .8 2h-1.6zM21.6 21c.3-.1.6-.3.9-.6.2-.3.3-.6.3-1 0-.3-.1-.7-.3-.9-.2-.3-.4-.5-.7-.6-.5-.1-.9-.2-1.4-.2h-1.2v5.8h1.1V21h.1l1.3 2.5h1.2L21.6 21zm-1-.9h-.3v-1.2h.3c.2 0 .4 0 .6.1.2.1.4.3.4.5s-.1.4-.2.5c-.3.1-.5.1-.8.1zM18 18.6c-.2-.3-.4-.5-.7-.6-.5-.1-.9-.2-1.4-.2h-1.2v5.8h1.1v-2.5c.4 0 .8 0 1.2-.1.3-.1.7-.3.9-.6.2-.3.3-.6.3-1 .1-.2 0-.5-.2-.8zm-.9 1.2c-.1.1-.2.2-.3.2-.2 0-.4.1-.6.1h-.3v-1.2h.3c.2 0 .5 0 .7.1.2.1.3.3.3.5 0 .1-.1.2-.1.3z"/></svg>