<svg version="1.1" id="Слой_1" xmlns="http://www.w3.org/2000/svg" x="0" y="0" viewBox="0 0 103 32" style="enable-background:new 0 0 103 32" xml:space="preserve"><style>.st1{fill:#fff}</style><linearGradient id="SVGID_1_" gradientUnits="userSpaceOnUse" x1="94.038" y1="15.997" x2="102.927" y2="15.997" gradientTransform="matrix(1 0 0 -1 0 30.724)"><stop offset="0" style="stop-color:#ff1843"/><stop offset="1" style="stop-color:#910055"/></linearGradient><path d="M102.4 11.7c0 1-.5 2-1.3 2.6 1.2.6 2 1.8 2 3.1 0 2.3-1.7 3.7-4.5 3.7-2.7 0-4.4-1.4-4.4-3.6 0-1.4.8-2.6 2.1-3.2-.9-.6-1.5-1.6-1.5-2.7 0-2 1.5-3.2 3.9-3.2 2.2 0 3.7 1.3 3.7 3.3zm-5.8 5.5c0 1 .7 1.7 1.8 1.7s1.8-.6 1.8-1.7-.7-1.6-1.8-1.6-1.8.5-1.8 1.6zm.3-5.3c0 .9.6 1.4 1.6 1.4s1.5-.5 1.5-1.4c0-.9-.6-1.5-1.5-1.5-1 0-1.6.6-1.6 1.5z" style="fill:url(#SVGID_1_)"/><path class="st1" d="M72.8 26.2V30H72v-3.8h-1.4v-.7h3.6v.7h-1.4zM80.8 28.1c0 1.2-.7 1.9-2 1.9-1.2 0-2-.7-2-1.9v-2.6h.8v2.6c0 .6.4 1.2 1 1.2h.2c.6 0 1.2-.4 1.2-1V25.5h.8v2.6zM85.1 25.5c1.2 0 2.3.9 2.3 2.2s-.9 2.3-2.2 2.3h-2.1v-4.5h2zM84 29.3h1.1c.8 0 1.5-.6 1.5-1.5v-.1c0-.9-.7-1.6-1.5-1.6H84v3.2zM89.7 30v-4.5h.8V30h-.8zM98 27.8c0 1.3-1 2.4-2.3 2.5-1.3 0-2.4-1-2.5-2.3 0-1.3 1-2.4 2.3-2.5h.1c1.3 0 2.3 1 2.4 2.3zm-4 0c0 .9.7 1.6 1.6 1.6s1.6-.7 1.6-1.6-.7-1.6-1.6-1.6-1.6.7-1.6 1.6zM67.8 27.4c-.2 0-.4-.1-.7-.2-.1-.1-.3-.2-.3-.4v-.3c.1-.1.2-.2.4-.2.4 0 .9.1 1.2.4v-.8c-.4-.1-.8-.2-1.2-.2-1 0-1.4.5-1.4 1.3v.1c0 .4.3.8.7 1H66.8c.6.2 1.2.3 1.2.8 0 .3-.3.5-.9.5-.5 0-1-.2-1.3-.5v.9c.4.2.9.4 1.3.4 1 0 1.7-.5 1.7-1.3.2-1-.4-1.3-1-1.5zM101.8 27.4c-.2 0-.4-.1-.7-.2-.1-.1-.3-.2-.3-.4v-.3c.1-.1.2-.2.4-.2.4 0 .9.1 1.2.4v-.8c-.4-.1-.8-.2-1.2-.2-1 0-1.4.5-1.4 1.3v.1c0 .4.3.8.7 1H100.8c.6.2 1.2.3 1.2.8 0 .3-.3.5-.9.5-.5 0-1-.2-1.4-.5v.9c.4.2.9.4 1.3.4 1 0 1.7-.5 1.7-1.3.4-1-.2-1.3-.9-1.5z"/><linearGradient id="SVGID_2_" gradientUnits="userSpaceOnUse" x1="-.512" y1="19.527" x2="34.523" y2="16.636" gradientTransform="matrix(1 0 0 -1 0 30.724)"><stop offset="0" style="stop-color:#ff1843"/><stop offset="1" style="stop-color:#910055"/></linearGradient><path d="M24 1.8s-4.6-3.5-12.6 0-10.2 9.8-10.2 9.8.4-.5 1.4-1.2c0 0-2.5 2.4-2.6 7 0 0 .2-1 .5-1.4 0 0 0 10.2 15.8 8.6 0 0-4.2-.4-8.4-2.3 0 0 1.2 1 1.2.9v-.1s-9.8-3-3-13.3c0 0 3.9-5 5.6-5.9l-.6.9c-.1 0 6.1-5 12.9-3z" style="fill:url(#SVGID_2_)"/><linearGradient id="SVGID_3_" gradientUnits="userSpaceOnUse" x1="-.854" y1="15.397" x2="34.182" y2="12.505" gradientTransform="matrix(1 0 0 -1 0 30.724)"><stop offset="0" style="stop-color:#ff1843"/><stop offset="1" style="stop-color:#910055"/></linearGradient><path d="M8.1 21.2s1.5-8 10.5-10.5c0 0-9.9 5.1-7.7 11.9l-2.8-1.4z" style="fill:url(#SVGID_3_)"/><linearGradient id="SVGID_4_" gradientUnits="userSpaceOnUse" x1=".016" y1="25.925" x2="35.052" y2="23.034" gradientTransform="matrix(1 0 0 -1 0 30.724)"><stop offset="0" style="stop-color:#ff1843"/><stop offset="1" style="stop-color:#910055"/></linearGradient><path d="M9.1 8.4s5.6-6.6 13.4-6.1c0 0 5 .8 1.2 4.8-1.9 1.7-4.2 2.9-6.7 3.5 0 0 5.2-2.5 5.6-5.9 0 0 0-2-2-1.7 0 0 .8.2.9.4.3.1-5.8-1.2-12.4 5z" style="fill:url(#SVGID_4_)"/><linearGradient id="SVGID_5_" gradientUnits="userSpaceOnUse" x1="-1.42" y1="8.521" x2="33.615" y2="5.63" gradientTransform="matrix(1 0 0 -1 0 30.724)"><stop offset="0" style="stop-color:#d11e49"/><stop offset="1" style="stop-color:#a21e4d"/></linearGradient><path d="m26.6 24.4-.2.2c.1 0 .2-.1.2-.2z" style="fill:url(#SVGID_5_)"/><linearGradient id="SVGID_6_" gradientUnits="userSpaceOnUse" x1="-1.384" y1="8.971" x2="33.652" y2="6.08" gradientTransform="matrix(1 0 0 -1 0 30.724)"><stop offset="0" style="stop-color:#ff1843"/><stop offset="1" style="stop-color:#910055"/></linearGradient><path d="M26.6 15.9c2.3 4.8-1 8.6-1 8.6.5-.1 1.9-1.9 1.9-1.9s.1.7-1 1.8l-.2.2c-3.5 3.3-7 3.2-7 3.2-3.9.1-7.2-2.5-7.2-2.5-1 .1-4-.5-4-.5.7 2.1 2.2 3.9 4.2 4.8 3.3 1.8 7.6.9 7.6.9-.5.7-1.7 1.1-1.7 1.1 3.5-.2 5.6-1.6 5.6-1.6-.1.3-1.4 1.8-1.4 1.8s4.8-1.2 6.8-7.4-2.6-8.5-2.6-8.5z" style="fill:url(#SVGID_6_)"/><linearGradient id="SVGID_7_" gradientUnits="userSpaceOnUse" x1="-.983" y1="13.825" x2="34.053" y2="10.934" gradientTransform="matrix(1 0 0 -1 0 30.724)"><stop offset="0" style="stop-color:#ff1843"/><stop offset="1" style="stop-color:#910055"/></linearGradient><path d="M30.3 16.1c.6.2 1.9 2.1 1.9 2.1-1.4-3.6-5-4.7-5.3-4.8.2 0 1.6-.2 2.9-1.2.8-.6 1.2-1.4 1.4-2.3-.7 1.2-2 2.1-3.4 2.2-.9.1-1.7.2-2.6.4.2-.4 1.6-.9 1.6-.9 1.1-.4 1.5-.9 1.7-1.1.1-.1.1-.2.2-.2.4-.5.8-1.1 1-1.7-.6 1.2-2.7 2.2-4 2.7-.4.1-.9.3-1.4.4-1.8.5-2.5 1.8-2.5 1.8-.3-1 2.4-2.3 2.4-2.3 2.1-1.9.1-2.7.1-2.7s1.1 1 0 1.9-1.6.8-3 1.8-1.4 2.4-1.4 2.4c-1.2-.1-.9 1.3-.9 1.3-1.1 0-2.3 1.2-2.3 1.2-.3.2-.8 0-.8 0 .1 2.1 2.4 2 2.4 2-.3-.1-.3-.5-.3-.7 0 0 0-.1.1-.1.7.1 1-.2 1-.4h.1l.5.1s.1 0 .1-.1l.4-1 .1-.1c.6 0 1.3-.5 1.8-.7h.1v.1c-.2.6-.8 2-1.1 2.9-.4 1.2-1.3.9-1.3.9.3.8 1.7 1.8 2.1.2.4-1.6 3-3.7 3-3.7.5 0 .9.8.9.8 0-1.8-.9-2.1-.9-2.1 7.4.8 5.4 9.1 5.4 9.1-1.2 1.8-1.6 4-1.2 6 0 0-.2-3.1 1.4-5.3 1.6-2.2 1.1-3.4 1.3-2.9.3.4.2 1.5.2 1.5 1.6-4.5-1.7-7.5-1.7-7.5zm-8.8-.6c0 .1-.2.1-.3.1-.2 0-.7 0-.9-.2v-.2c.2 0 .8-.3 1.8-1.1h.3l-.9 1.4z" style="fill:url(#SVGID_7_)"/><linearGradient id="SVGID_8_" gradientUnits="userSpaceOnUse" x1="-1.036" y1="13.177" x2="34" y2="10.286" gradientTransform="matrix(1 0 0 -1 0 30.724)"><stop offset="0" style="stop-color:#ff1843"/><stop offset="1" style="stop-color:#910055"/></linearGradient><path d="M20.9 18c.1-.2 0-.6 0-.6-.2.8-.8 1.5-1.6 1.8-.1 0-.3.1-.4.2-1.5.8-1.4 1.7-1.4 1.7 0-.2.3-.4.5-.6.3-.2.6-.4 1-.5.4-.2.9-.4 1.2-.7.1 0 .2-.1.3-.2.8-.4.9-1.8.9-1.8-.3.5-.5.7-.5.7z" style="fill:url(#SVGID_8_)"/><path class="st1" d="M39.2 8.9c3 0 4.7 1.5 4.7 4.1 0 2.8-1.7 4.3-4.7 4.3h-1.6v3.3h-3V8.9h4.6zm-1.6 6H39c1.3 0 2.1-.6 2.1-1.9s-.7-1.8-2.1-1.8h-1.4v3.7zM56.1 15.6c0 3.1-2 5.1-5.1 5.1-3.1 0-5.1-2-5.1-5.1V8.9h2.8v6.8c0 1.6 1 2.5 2.3 2.5s2.2-1 2.2-2.5V8.9H56v6.7zM67.1 18v2.5h-7.9V8.9h3V18h4.9zM82.9 11.2v2.3h4.5v2.4h-4.5v2.4h5.3v2.4h-8.3V8.9h8.2v2.4l-5.2-.1zM74.2 13.7l-.8-.2c-.7-.2-1.3-.6-1.3-1.2s.5-1 1.3-1h.2c.9.1 1.8.3 2.7.7l.2.1V9.3c-.7-.2-1.5-.4-2.3-.5h-.5C71 8.8 69 10 69 12.4c0 2.1 1.6 2.9 3.1 3.4l.8.2c.7.2 1.3.6 1.3 1.2s-.5 1-1.3 1h-.2c-.9-.1-1.9-.3-2.7-.7-.2-.1-.5-.2-.6-.3V20c.9.3 1.8.6 2.8.6h.5c2.6 0 4.7-1.3 4.7-3.6-.2-2.1-1.7-2.8-3.2-3.3z"/></svg>