<svg version="1.1" id="Слой_1" xmlns="http://www.w3.org/2000/svg" x="0" y="0" viewBox="0 0 103 32" style="enable-background:new 0 0 103 32" xml:space="preserve"><style>.st0{fill:#fff}.st1{fill:#f23929}</style><path class="st0" d="M31.9 2.8c-.5-.8-1.2-1.4-2.1-1.8C29 .7 27.7.5 26 .5h-4v18h3.4v-7.6c1.8 0 3-.1 3.6-.3 1.1-.3 2-.9 2.7-1.7.7-.8 1-1.9 1-3.1 0-1.2-.3-2.2-.8-3zM29 6.7c-.2.3-.5.5-.8.6-.3.1-.9.2-1.8.2h-1.1V3.8h1c1.1 0 1.8.1 2.2.4.5.3.8.8.8 1.5 0 .4-.1.8-.3 1zM42 19c1 0 1.9-.2 2.6-.5.8-.3 1.5-.8 2-1.5.6-.7 1-1.3 1.2-2 .2-.7.3-2 .3-3.8V.5h-3.4v11.3c0 1.2-.1 2-.3 2.5-.2.4-.5.8-.9 1.1-.4.3-1 .4-1.6.4-.6 0-1.1-.1-1.5-.4-.4-.2-.7-.6-.9-1-.2-.4-.3-1.1-.3-2.1V.5h-3.4v10.8c0 2.1.2 3.7.6 4.6.4.9 1.1 1.7 2.1 2.3s2.2.8 3.5.8zM56.3 19c1.6 0 3-.5 4-1.4 1-1 1.5-2.2 1.5-3.7 0-.7-.1-1.4-.4-2.1-.3-.6-.8-1.3-1.5-2-.3-.3-1.1-1-2.4-2.1-1.4-1.2-2.2-2-2.5-2.3-.2-.2-.3-.5-.3-.9 0-.3.1-.6.4-.8.3-.2.7-.4 1.1-.4.9 0 1.8.6 2.7 1.9L61.4 3c-.9-1.1-1.8-1.9-2.6-2.3-.7-.5-1.6-.7-2.5-.7-1.4 0-2.6.4-3.5 1.3-1 .9-1.4 2-1.4 3.2 0 .9.3 1.7.9 2.6.6.9 1.8 2.1 3.8 3.7 1 .8 1.7 1.5 2 1.9.3.4.5.8.5 1.2 0 .5-.2.8-.6 1.2-.4.3-.9.5-1.5.5-1.1 0-2.1-.8-3-2.4l-2.9 1.7c.7 1.3 1.5 2.3 2.4 3 .9.8 2.1 1.1 3.3 1.1zM68.6 18.5v-7.9h6.1v7.9h3.5V.5h-3.5v6.8h-6.1V.5h-3.4v18z"/><path class="st1" d="M26.8 32c.9 0 1.7-.2 2.4-.6.7-.4 1.2-1 1.6-1.7.4-.7.6-1.5.6-2.3V27h-4.7v1.7h2.7c-.3.5-.6.9-1 1.2-.4.3-.9.4-1.5.4-.9 0-1.7-.3-2.4-.9-.6-.6-1-1.4-1-2.3 0-.9.3-1.6.9-2.2.6-.6 1.4-.9 2.3-.9 1 0 2 .4 2.8 1.2l1.2-1.2c-.6-.6-1.1-1-1.7-1.3-.7-.3-1.5-.5-2.3-.4-1.5 0-2.8.5-3.8 1.6-.8.9-1.2 2-1.2 3.2 0 .9.2 1.7.7 2.5.4.8 1 1.4 1.8 1.8.8.4 1.6.6 2.6.6zM37.7 22.5h-1.8l-3.6 9.3h1.8l.8-1.9h3.8l.7 1.9h1.8l-3.5-9.3zm-2.1 5.6 1.2-3.2 1.2 3.2h-2.4zM43.6 31.8l1-5.9 2 5.9h1.6l1.9-5.9 1 5.9h1.7l-1.5-9.3h-1.7L47.4 29l-2.2-6.5h-1.7l-1.6 9.3zM55.9 31.8v-9.3h-1.8v9.3h1.8zM59.6 31.8v-6.1l4 6.1h1.7v-9.3h-1.8v6.1l-3.9-6.1h-1.7v9.3zM72 32c.9 0 1.7-.2 2.4-.6.7-.4 1.2-1 1.6-1.7.4-.7.6-1.5.6-2.3V27H72v1.7h2.7c-.3.5-.6.9-1 1.2-.4.3-.9.4-1.5.4-.9 0-1.7-.3-2.4-.9-.6-.6-1-1.4-1-2.3 0-.9.3-1.6.9-2.2.6-.6 1.4-.9 2.3-.9 1 0 2 .4 2.8 1.2L76 24c-.6-.6-1.1-1-1.7-1.3-.7-.3-1.5-.5-2.3-.4-1.5 0-2.8.5-3.8 1.6-.8.9-1.2 2-1.2 3.2 0 .9.2 1.7.7 2.5.4.8 1 1.4 1.8 1.8.7.4 1.6.6 2.5.6z"/><path class="st0" d="M78.2 24.3v-1.7h.4v-.4h-1.1v.4h.3v1.7h.4zM79.1 24.3l.3-1.3.4 1.3h.4l.4-1.3.2 1.3h.4l-.3-2.1h-.4l-.5 1.5-.5-1.5h-.4l-.4 2.1z"/></svg>