<svg xmlns="http://www.w3.org/2000/svg" viewBox="0 0 103 32" style="enable-background:new 0 0 103 32" xml:space="preserve"><path d="M75.3 8.6h-1.6c-.9 0-1.6-.7-1.6-1.6s.7-1.6 1.6-1.6h5.2c2.3 0 4.1 2.8 4.1 6.2 0 3.4-1.8 6.2-4.1 6.2h-5.2c-.9 0-1.6-.7-1.6-1.6s.7-1.6 1.6-1.6h5c.8 0 1.5-1.4 1.5-3.1 0-1.7-.7-3-1.5-3.1 0 .2-3.4.2-3.4.2zm-67.5 2v-.4c0-.9-1-1.6-2.3-1.6s-2.3.7-2.3 1.6v.4c0 .9-.8 1.5-1.7 1.5C.7 12 0 11.4 0 10.6v-.5c0-2.6 2.5-4.6 5.5-4.6S11 7.6 11 10.1v.5c0 .9-.8 1.5-1.7 1.5-.8-.1-1.4-.7-1.5-1.5zM11 12v8.2c-.4-.4-1-.7-1.6-.7-.6 0-1.2.3-1.6.7V12c.4.4 1 .7 1.6.7.6 0 1.2-.3 1.6-.7zm-7.8 0v8.2c-.4-.4-1-.7-1.6-.7-.6 0-1.2.3-1.6.7V12c.4.4 1 .7 1.6.7.6 0 1.2-.3 1.6-.7zm6.4 13.3L11 28c.2.4-.2 1.1-1 1.5-.8.4-1.6.4-1.8-.1l-1.4-2.7c-.4.1-.8.1-1.2.1-3 0-5.5-2.1-5.5-4.6v-.5c0-.9.8-1.5 1.7-1.5.8 0 1.4.7 1.5 1.5v.3c0 .9 1.1 1.6 2.3 1.6s2.3-.7 2.3-1.6v-.4c0-.9.8-1.5 1.7-1.5.8 0 1.4.7 1.5 1.5v.5c-.1 1.3-.6 2.4-1.5 3.2zM16.8 7v13.2c-.4-.4-1-.7-1.6-.7-.6 0-1.2.3-1.6.7V7c0-.9.7-1.6 1.5-1.6s1.6.7 1.6 1.5c.1 0 .1.1.1.1zM53 15.3l5 9.9c.2.4-.2 1.1-1 1.5-.8.4-1.6.4-1.8-.1L51 18.2l2-2.9zm4.8-8.1L49 19.9c-.4.5-1.2.5-1.9 0s-1-1.3-.7-1.8l8.8-12.8c.4-.3 1.2-.3 1.9.2s1.1 1.2.7 1.7c.1 0 .1 0 0 0zM24.6 7v13.2c-.4-.4-1-.7-1.6-.7-.6 0-1.2.3-1.6.7V7c0-.9.7-1.6 1.5-1.6.9 0 1.6.7 1.6 1.5.1 0 .1.1.1.1zm2.9 18.2V7c0-.9.7-1.6 1.5-1.6.9 0 1.6.7 1.6 1.5v18.3c0 .9-.7 1.6-1.5 1.6-.9 0-1.6-.7-1.6-1.5v-.1zm57.7 0V7c0-.9.7-1.6 1.5-1.6.9 0 1.6.7 1.6 1.5v18.3c0 .9-.7 1.6-1.5 1.6-.9 0-1.6-.7-1.6-1.5-.1 0-.1 0 0-.1zm5.5-16.5 3.2 6.3v10.2c0 .9-.7 1.6-1.5 1.6s-1.6-.7-1.6-1.5v-.1c-.1 0-.1-16.5-.1-16.5zm9.1 8.7V7.1c0-.9.7-1.6 1.5-1.6.9 0 1.6.7 1.6 1.5V23.7l-3.1-6.3zm.2 8.6L90.9 7.8c-.4-.8-.2-1.8.6-2.2s1.7-.1 2.1.6c0 0 0 .1.1.1l9.1 18.2v.1c.4.8.1 1.7-.6 2.1-.8.4-1.7.1-2.1-.6-.1 0-.1-.1-.1-.1zM75.3 14.1h-1.6c-.6 0-1.2.3-1.6.7V8.5c.4.4 1 .7 1.6.7h1.6v4.9zm0 4.4v6.7c0 .9-.7 1.6-1.5 1.6-.9 0-1.6-.7-1.6-1.5v-7.5c.4.4 1 .7 1.6.7h1.5zM46.4 20c.4.5 1.1.8 1.8.8.5 0 1-.1 1.3-.4v4.8c0 .9-.7 1.6-1.5 1.6-.9 0-1.6-.7-1.6-1.5V20zm0-2.9V7c0-.9.7-1.6 1.5-1.6.9 0 1.6.7 1.6 1.5v5.6l-3.1 4.6zm-24.9 4.5c0-.9.8-1.5 1.7-1.5.8 0 1.4.7 1.5 1.5v.5c0 2.6-2.5 4.6-5.5 4.6s-5.5-2.1-5.5-4.6v-.5c0-.9.8-1.5 1.7-1.5.8 0 1.4.7 1.5 1.5v.4c0 .9 1.1 1.6 2.3 1.6s2.3-.7 2.3-1.6v-.4zm19.8-11v-.4c0-.9-1-1.6-2.3-1.6-1.3 0-2.3.7-2.3 1.6v.4c-.1.9-.8 1.5-1.7 1.5-.8 0-1.4-.7-1.5-1.5v-.5c0-2.6 2.5-4.6 5.5-4.6s5.5 2.1 5.5 4.6v.5c0 .9-.8 1.5-1.7 1.5-.8-.1-1.5-.7-1.5-1.5zM36.6 12v8.2c-.4-.4-1-.7-1.6-.7-.6 0-1.2.3-1.6.7V12c.4.4 1 .7 1.6.7s1.2-.3 1.6-.7zm4.7 9.6c0-.9.8-1.5 1.7-1.5.8 0 1.4.7 1.5 1.5v.5c0 2.6-2.5 4.6-5.5 4.6s-5.5-2.1-5.5-4.6v-.5c.1-.9.8-1.5 1.7-1.5.8 0 1.4.7 1.5 1.5v.4c0 .9 1.1 1.6 2.3 1.6 1.3 0 2.3-.7 2.3-1.6v-.4zm25.6-11v-.4c0-.9-1-1.6-2.3-1.6-1.3 0-2.3.7-2.3 1.6v.4c0 .9-.8 1.5-1.7 1.5-.8 0-1.5-.7-1.5-1.5v-.5c0-2.6 2.5-4.6 5.5-4.6s5.5 2.1 5.5 4.6v.5c0 .9-.8 1.5-1.7 1.5-.8-.1-1.4-.7-1.5-1.5zm-4.1.6 6 8.3c-1.2-.2-2.2.6-2.4 1.7v.2L60 12.7c1.1.4 2.3-.2 2.7-1.4l.1-.1zm4.1 10.4c0-.9.8-1.5 1.7-1.5.8 0 1.4.7 1.5 1.5v.5c0 2.6-2.5 4.6-5.5 4.6s-5.5-2.1-5.5-4.6v-.5c0-.9.8-1.5 1.7-1.5.8 0 1.4.7 1.5 1.5v.4c0 .9 1.1 1.6 2.3 1.6s2.3-.7 2.3-1.6v-.4z" style="fill:#ff8224"/></svg>