<svg version="1.1" id="Слой_1" xmlns="http://www.w3.org/2000/svg" x="0" y="0" viewBox="0 0 103 32" style="enable-background:new 0 0 103 32" xml:space="preserve"><style>.st1{fill:#fff}.st3{fill:#ffd400}</style><g><defs><filter id="Adobe_OpacityMaskFilter" filterUnits="userSpaceOnUse" x="0" y="1.9" width="27.1" height="28.2"><feColorMatrix values="1 0 0 0 0 0 1 0 0 0 0 0 1 0 0 0 0 0 1 0"/></filter></defs><mask maskUnits="userSpaceOnUse" x="0" y="1.9" width="27.1" height="28.2" id="mask-2_1_"><path class="st1" d="M0 1.9h27.2v28.2H0V1.9z" style="filter:url(#Adobe_OpacityMaskFilter)"/></mask><path d="M16.2 22c.2.1.2 0 .4 0 1.2-.4 2.4-.6 3.6-1 .3-.1.5-.2.7-.5l.6-.9c.5-.9 1.1-1.8 1.5-2.6.1-.1.1-.2.1-.2l-.1-.1c-2.3 1.7-4.5 3.5-6.8 5.3m-5.3.1c-.1-.1-.1-.2-.2-.2-1.2-1-2.5-2-3.8-3l-2.7-2.1c-.1-.1-.1-.1-.3-.1l.3.6c.6 1.1 1.3 2.2 1.9 3.3.3.3.5.4.9.6 1.2.4 2.5.6 3.7 1 0-.1.1-.1.2-.1M.1 2l.7.7L5 7c.5.5 1 1.1 1.5 1.5.2.2.3.2.5.1 1.6-.6 3.4-1 5.1-1.1 2.8-.2 5.5.1 8.2 1.1.2.1.3.1.5-.1 1.1-1.1 2.1-2.2 3.1-3.2l2.8-2.8.6-.6v15.5c0 .5-.2.9-.4 1.4-.5.9-1.2 1.8-1.8 2.6-.9 1.1-1.9 2.2-2.9 3.4-.7.8-1.4 1.6-2 2.5-.4.5-.8.9-1.2 1.3-.9.8-1.9 1.2-3.1 1.4-1.5.2-2.9.2-4.4-.1s-2.6-.9-3.6-2.1c-.5-.5-.9-1.1-1.4-1.7-.9-1-1.7-2.1-2.6-3.1-1.1-1.2-2.1-2.4-2.9-3.8-.3-.5-.6-.9-.7-1.5-.3-.1-.3-.3-.3-.5V2.3L.1 2" style="mask:url(#mask-2_1_);fill:#ffd400"/></g><path class="st3" d="M35.4 11.8v4.6c1-.4 1.8-.9 2.4-1.7.2-.4.2-.7 0-1.1-.5-.9-1.4-1.3-2.4-1.8m7.4 12.3h-4.3c-.3 0-.5-.2-.6-.5l-1.8-3.3c-.2-.4-.4-.8-.7-1.1-.2.8-.1 1.6-.1 2.4V24c-1.5.1-3 0-4.6 0-.1-5.4.1-10.6.1-16h6.7c.4 0 .8.1 1.1.2 1.4.6 2.4 1.5 3.2 2.8.9 1.4 1 2.9.2 4.4-.4.8-.9 1.5-1.4 2.1-.3.4-.3.7-.1 1.2.6 1.5 1.3 3 1.9 4.5.3.3.3.5.4.9M62.4 17.5v3.3c.8-.4 1.3-.8 1.7-1.3.2-.2.1-.5 0-.6-.4-.6-.9-1-1.7-1.4m.1-5.8V15c.7-.4 1.2-.8 1.7-1.3.2-.2.2-.4 0-.6-.5-.7-1-1-1.7-1.4m4.5 4.7c.5.5.9 1 1.3 1.5.2.2.4.5.5.8.4.8.4 1.6-.1 2.4-.5.8-1.2 1.5-2.1 2.1-1.2.9-1.2.9-2.7.9h-5.5c-.1-.5-.1-15.1 0-16 .2 0 .4-.1.5-.1h6.2c.2 0 .5.1.7.2 1.2.9 2.1 1.9 2.6 3.4.4 1 .4 2-.2 2.9-.4.5-.8 1.2-1.2 1.9M49 17.9c.8 0 1.5.1 2.2-.1-.3-1.1-.6-2.1-1.1-3.3 0 .3-.1.4-.1.5-.3.9-.6 1.8-1 2.9M48 8h3.5c.3 0 .4.2.5.5.2.8.5 1.5.8 2.4 1.4 4.2 2.8 8.3 4.2 12.5.1.2.1.5.2.8-.2.1-.3.1-.4.1h-3.6c-.6 0-.6 0-.7-.5-.1-.5-.3-.9-.4-1.4-.1-.4-.2-.5-.6-.5h-3.1c-.4 0-.5.1-.6.5-.2.6-.4 1.3-.5 2h-4.1c.5-1.8 1.1-3.6 1.5-5.4l1.6-5.3c.6-2.1 1.1-3.9 1.7-5.7M87.4 14.6h-.2c-.4 1.1-.7 2.1-1.1 3.2.8.1 1.5.1 2.2-.1-.2-1-.5-2.1-.9-3.1m7 9.4h-4.6l-.6-2.4c-.3 0-.6-.1-.9-.1h-2.6c-.4 0-.5.1-.6.5l-.6 2h-4.2c.1-.3.1-.5.2-.7 1.4-4.8 2.9-9.6 4.3-14.4.1-.1.1-.2.1-.4.2-.6.2-.6.8-.6H89c1.8 5.4 3.6 10.7 5.4 16.1"/><g transform="translate(118.06 10.167)"><defs><filter id="Adobe_OpacityMaskFilter_1_" filterUnits="userSpaceOnUse" x="-48.6" y="-2.2" width="10.6" height="16.2"><feColorMatrix values="1 0 0 0 0 0 1 0 0 0 0 0 1 0 0 0 0 0 1 0"/></filter></defs><mask maskUnits="userSpaceOnUse" x="-48.6" y="-2.2" width="10.6" height="16.2" id="mask-4_1_"><path class="st1" d="M-48.6-2.2H-38v16.1h-10.6V-2.2z" style="filter:url(#Adobe_OpacityMaskFilter_1_)"/></mask><path d="M-38.1-2.2v4c-.3 0-.5.1-.7.1h-3.1c-.3 0-.6.1-.8.3-1.5 1.4-2.5 5.1-.2 7.4.4.4.7.5 1.2.5.9-.1 1.9 0 2.9 0h.7c.2.6.2 2.9.1 3.8-.2 0-.4.1-.6.1H-44c-.5 0-.8-.1-1.2-.5-2.3-1.9-3.3-4.4-3.2-7.3.1-1.8.4-3.6 1.3-5.3.5-1 1.2-1.9 2.1-2.7.3-.2.6-.4 1-.4H-38.1" style="mask:url(#mask-4_1_);fill:#ffd400"/></g><g transform="translate(156.368 10.167)"><defs><filter id="Adobe_OpacityMaskFilter_2_" filterUnits="userSpaceOnUse" x="-64.4" y="-2.3" width="11" height="16.2"><feColorMatrix values="1 0 0 0 0 0 1 0 0 0 0 0 1 0 0 0 0 0 1 0"/></filter></defs><mask maskUnits="userSpaceOnUse" x="-64.4" y="-2.3" width="11" height="16.2" id="mask-6_1_"><path class="st1" d="M-64.4-2.2h11v16.1h-11V-2.2z" style="filter:url(#Adobe_OpacityMaskFilter_2_)"/></mask><path d="M-53.4-2.1v4.5h-3.2c-.1 3.8-.1 7.6-.2 11.4-1.4.1-2.8.1-4.3 0 0-.3-.1-.6-.1-.9 0-3.2-.1-6.4-.1-9.6 0-.3-.1-.6-.1-1h-3.1c-.1-.2-.1-.4-.1-.6v-3.4c0-.6.1-.7.7-.7h9.7c.4.2.6.2.8.3" style="mask:url(#mask-6_1_);fill:#ffd400"/></g></svg>