<svg xmlns="http://www.w3.org/2000/svg" viewBox="0 0 103 32" style="enable-background:new 0 0 103 32" xml:space="preserve"><path d="M12.7 20.4v-1.6h4.2v1.9c0 1.7.7 2.6 2 2.6s2-.9 2-2.6c0-1-.3-1.9-.8-2.7-.6-.9-1.2-1.6-2-2.3L16 13.5c-.9-.8-1.6-1.7-2.2-2.9-.6-1.2-.9-2.4-.9-3.8 0-2.1.6-3.7 1.7-4.9S17.2.2 19.2.2s3.4.6 4.4 1.7C24.5 3 25 4.6 25 6.8v.8h-3.9V6.5c0-1.7-.7-2.6-2.1-2.6-1.4 0-2.1.9-2.1 2.6 0 .7.1 1.4.5 2.1.3.6.7 1.2 1.2 1.8l1.6 1.6c.6.5 1.2 1.1 1.7 1.6.6.6 1.1 1.2 1.6 1.8s.9 1.4 1.2 2.3c.3.9.5 1.8.5 2.8 0 2.1-.5 3.7-1.6 4.9-1.2 1-2.7 1.6-4.6 1.6s-3.5-.6-4.6-1.7-1.7-2.8-1.7-4.9m18.8-7.3h2c.7 0 1.2-.2 1.5-.6.3-.4.5-1 .5-1.9V6.7c0-.9-.2-1.5-.5-1.9-.3-.4-.8-.6-1.5-.6h-2v8.9zm-4.1 13.6V.5h6.1c4.1 0 6.2 2.2 6.2 6.5v3.4c0 4.3-2.1 6.5-6.2 6.5h-2v9.8h-4.1zm18.3-14.4h1.6c.8 0 1.5-.2 1.9-.6.4-.4.6-1.1.6-2.1V6.9c0-1.8-.7-2.7-2.1-2.7h-2v8.1zm-4.1 14.4V.5h6.2c2.1 0 3.7.5 4.7 1.5S54 4.5 54 6.6v2.1c0 2.7-.9 4.5-2.7 5.3 1.8.8 2.7 2.6 2.7 5.6v4.2c0 1.3.1 2.3.4 3h-4.2c-.2-.7-.4-1.8-.4-3.2v-4.1c0-1.2-.2-2-.6-2.6-.4-.5-1.1-.8-2.1-.8h-1.4v10.7l-4.1-.1zm15.1 0h4.1V.5h-4.1v26.2zM68 22.9h2.4c.7 0 1.3-.2 1.6-.6.4-.4.5-1.1.5-2V18c0-1.2-.2-2-.6-2.5-.4-.5-1.1-.7-2-.7H68v8.1zm0-11.7h1.6c.8 0 1.5-.2 1.9-.6.4-.4.6-1.1.6-2.1V6.9c0-1.8-.7-2.7-2.1-2.7h-2v7zm-4.2 15.5V.5H70c2.1 0 3.7.5 4.7 1.5s1.5 2.5 1.5 4.6v.9c0 2.7-.9 4.5-2.7 5.3 2.1.8 3.1 2.7 3.1 5.6v2.1c0 2-.5 3.6-1.6 4.6-1.1 1.1-2.6 1.6-4.7 1.6h-6.5zm15.3 0V.5h11.3v3.7h-7.1v7.3H89v3.7h-5.7v7.7h7.1v3.7H79.1zM12.6 32h77.8v-3.6H12.6V32z" style="fill:#fff"/></svg>