<svg version="1.1" id="Слой_1" xmlns="http://www.w3.org/2000/svg" x="0" y="0" viewBox="0 0 103 32" style="enable-background:new 0 0 103 32" xml:space="preserve"><style>.st0{fill:#fff}</style><path class="st0" d="m29.6 22 1.1-7v-.2l-4.2-8.2c-.1-.1-.2-.2-.4-.1l-2.1.9c-.1.1-.3 0-.4-.1l-3.2-3.7-1.7-.9L14.1.1c-.2-.1-.4 0-.4.2l-1.4 4.8-.9-2.7-5 4.9-.1.1-2.7 4.5v5.4l-2-1.2 1.3 8.2v.1l3 5.1c0 .1.1.1.2.1l6.7 2.4h6.6l9.3-3.5c.1 0 .1-.1.2-.2l3.1-7.4-2.4 1.1zm-4.2-4.3c0 .2-.2.4-.4.4h-5c-.2 0-.4.2-.4.4l-.3 9.5c0 .2-.2.4-.4.4h-4.3c-.2 0-.4-.2-.4-.4l-.2-9.2c0-.2-.2-.4-.4-.4l-5.4.2c-.2 0-.4-.2-.4-.4v-5.4c0-.2.2-.4.4-.4l16.9-.3c.2 0 .4.2.4.4l-.1 5.2zM36.6 14l.3 6.7c0 .2.2.4.4.4L39 21c.2 0 .4-.2.4-.4l-.2-6.6c0-.2.2-.4.4-.4h1c.2 0 .4-.2.4-.4v-1.6c0-.2-.2-.4-.4-.4l-5.6.1c-.2 0-.4.2-.4.4v1.5c0 .2.2.4.4.4h1.1c.3 0 .5.2.5.4zM47.3 12c0-.2-.2-.4-.5-.5h-1.6c-.2 0-.3.1-.3.3v3.8l-.8.1-.1-4.1c0-.2-.1-.3-.3-.3H42c-.2 0-.4.2-.4.4l.3 9.3c0 .2.2.4.5.4l1.5-.1c.2 0 .4-.1.4-.4l-.2-3h.6v2.7c0 .3.2.5.5.5l1.7.1c.3 0 .5-.2.5-.5l-.1-8.7zM53.1 10.9l-1.5.1c-.2 0-.4.2-.4.4v6.9s0 1-.4 1-.4-.6-.4-.8v-.1l.1-6.5c0-.2-.2-.4-.4-.5l-1.7-.2c-.2 0-.4.1-.4.4v6.8c0 1.5 1.2 2.7 2.7 2.7 1.5 0 2.7-1.2 2.7-2.7l.1-7.1c0-.3-.2-.5-.4-.4zM54.4 20.4l-.2-8.5c0-.3.2-.5.5-.5l1.3-.1c.2 0 .4.1.5.3l1.6 4.3-.2-4.2c0-.2.1-.4.3-.4h1.6c.2 0 .4.2.4.4l.1 9c0 .3-.2.5-.5.5h-1.5c-.2 0-.4-.1-.4-.3l-1.3-3.7.2 3.5c0 .2-.2.4-.4.4L55 21c-.3 0-.6-.3-.6-.6zM63.4 11.1l-1.8-.1c-.2 0-.4.2-.4.4l-.2 8.9c0 .3.2.5.4.5l1.3-.1c1.9 0 3.8-1.1 3.8-3.4v-2.9c.1-1.7-1.3-3.2-3.1-3.3zm.9 5.6c-.1 1.8-1.2 2.1-1.2 2.1l.2-5.6c1.1.3 1 1.4 1 1.4s.1.3 0 2.1zM67.2 11.8v8.8c0 .3.2.5.5.5h3.9c.2 0 .4-.2.4-.4v-1.2c0-.2-.2-.4-.4-.4l-2.1.1v-1.8h1.2c.3 0 .5-.3.5-.6v-1.1c0-.2-.2-.4-.4-.3h-1.4v-2h2.1c.2 0 .4-.2.4-.4v-1.3c0-.2-.2-.4-.4-.4l-4 .1c-.1 0-.3.2-.3.4zM78.1 15.4c0-.8.1-2.5-.7-3.5-.8-1.1-3.6-.7-3.6-.7l-.8.1c-.2 0-.4.2-.4.5l.1 8.6c0 .3.2.5.5.5h1.1c.2 0 .4-.2.4-.4v-2.7l.6-.1.7 3c0 .2.2.4.5.4l1.2-.1c.3 0 .5-.3.4-.6-.2-.9-.7-2.5-.9-3.3.2-.3.8-1 .9-1.7zm-3.4.3v-2.5s1.2-.2 1.4.9c.1.6 0 1.4-1.4 1.6zM79 11.4h1.8c.3 0 .5.2.4.5L81 15s1.1-.6 1.2-3.3c0-.2.2-.4.4-.4.8 0 1.5-.1 1.5-.1.2 0 .3.1.4.3 0 .6 0 2.1-.6 3.2-.3.6-.8 1.5-1.2 1.8.5.5 1.2 1.2 1.8 4.1.1.2-.1.5-.4.5h-1.5c-.2 0-.4-.2-.5-.4-.1-.7-.4-2-1.3-2.7v2.7c0 .2-.1.3-.3.3l-1.5.2c-.3 0-.5-.2-.5-.5l-.1-8.9c.2-.2.4-.4.6-.4zM85.5 11.1l1.5-.2c.3 0 .6.2.6.5l.1 8.5c0 .4-.3.8-.8.8l-1.3.1c-.3 0-.6-.2-.6-.6v-8.7c.2-.2.3-.3.5-.4zM94.3 13.9c-.1-1.6-1.4-2.9-3-2.8H91c-1.5.1-2.6 1.3-2.6 2.8v4.5c0 1.4 1.1 2.6 2.6 2.6h.8c1.3 0 2.3-1 2.4-2.3v-.5c0-.3-.2-.5-.5-.5h-1.3c-.2 0-.4.2-.4.4v.8c0 .2-.2.4-.6.4-.4 0-.7-.4-.7-.8l.1-5c0-.3.3-.6.6-.6h.2c.3 0 .5.3.5.5v.2s0 .4.1.4c.1.1.3.1.3.1H94.1c.1.1.2 0 .2-.2zM94.9 20.6l-.2-8.9c0-.2.1-.4.4-.4l1.8-.2c.3 0 .5.2.5.4l-.2 3.5s.8-.6 1-2.1c0-.6 0-1-.1-1.3 0-.2.1-.4.3-.4l1.9-.3c.3 0 .5.1.5.4.1.7.1 1.9-.3 2.9-.3.7-.6 1.3-1.3 1.9.5.6 1.3 1.6 1.8 3.1.2.5.3.8.3 1 .1.2-.1.5-.3.5l-1.8.2c-.2 0-.4-.1-.5-.3-.2-.6-.6-2-1.4-2.9 0 .9-.1 2.1-.1 2.7 0 .2-.2.4-.4.4l-1.4.2c-.3.1-.5-.1-.5-.4z"/></svg>