<svg width="21" height="21" fill="none" xmlns="http://www.w3.org/2000/svg"><path d="M19.031 3.938H15.75V3.28c0-.393-.262-.656-.656-.656H5.906c-.393 0-.656.263-.656.656v.656H1.969c-.394 0-.657.263-.657.657v1.772c0 2.887 2.232 5.25 5.12 5.38.524.723 1.246 1.248 2.1 1.576v1.772h-.657a1.934 1.934 0 0 0-1.969 1.969v1.968c0 .394.263.657.657.657h7.875c.393 0 .656-.263.656-.657v-1.968a1.934 1.934 0 0 0-1.969-1.97h-.656v-1.706c.853-.328 1.575-.918 2.1-1.575 2.822-.196 5.118-2.493 5.118-5.38V4.593c0-.394-.262-.657-.656-.657ZM2.625 6.365V5.25H5.25v3.281c0 .656.131 1.247.328 1.772-1.706-.46-2.953-2.034-2.953-3.937Zm15.75 0c0 1.837-1.247 3.412-2.953 3.937a5.012 5.012 0 0 0 .328-1.772V5.25h2.625v1.116Z" fill="#137cec"/><path d="M19.031 3.938H15.75V3.28c0-.393-.262-.656-.656-.656H5.906c-.393 0-.656.263-.656.656v.656H1.969c-.394 0-.657.263-.657.657v1.772c0 2.887 2.232 5.25 5.12 5.38.524.723 1.246 1.248 2.1 1.576v1.772h-.657a1.934 1.934 0 0 0-1.969 1.969v1.968c0 .394.263.657.657.657h7.875c.393 0 .656-.263.656-.657v-1.968a1.934 1.934 0 0 0-1.969-1.97h-.656v-1.706c.853-.328 1.575-.918 2.1-1.575 2.822-.196 5.118-2.493 5.118-5.38V4.593c0-.394-.262-.657-.656-.657ZM2.625 6.365V5.25H5.25v3.281c0 .656.131 1.247.328 1.772-1.706-.46-2.953-2.034-2.953-3.937Zm15.75 0c0 1.837-1.247 3.412-2.953 3.937a5.012 5.012 0 0 0 .328-1.772V5.25h2.625v1.116Z" fill="#137cec"/></svg>