<svg version="1.1" id="图层_1" xmlns="http://www.w3.org/2000/svg" x="0" y="0" viewBox="0 0 3000 1131.5" style="enable-background:new 0 0 3000 1131.5" xml:space="preserve"><style>.st0{fill:#fff}</style><path class="st0" d="M1198.6 497.4h44.4v289.9h-44.4zM1080 374.6h361.9V419H1080zM1278.8 497.4h44.4v289.9h-44.4zM2549.8 787.6h44.8V613l-44.8-49.8z"/><path class="st0" d="M2785.7 374.6v323.7l-316.9-352.2v441.5h44.7V463.8l317.1 352.3V374.6zM2178.7 374.4c-113.9 0-206.5 92.6-206.5 206.5s92.6 206.5 206.5 206.5 206.5-92.6 206.5-206.5c0-113.8-92.6-206.5-206.5-206.5zm0 368.5c-89.3 0-162-72.6-162-162s72.6-162 162-162c89.3 0 162 72.6 162 162 0 89.3-72.7 162-162 162z"/><path class="st0" d="M2178.7 551.2c-16.4 0-29.7 13.3-29.7 29.7s13.3 29.7 29.7 29.7 29.7-13.3 29.7-29.7-13.3-29.7-29.7-29.7zM1894.5 501.3c0-69.8-56.4-126.6-125.7-126.6h-236.2v413h44.1V419.5h192.1c44.5 0 80.7 36.7 80.7 81.8 0 44.9-35.7 81.4-79.8 81.9l-156.7-.1v204.6h44.1V627.9h103.3l84.4 159.7h51.3l-88.1-166c50.9-16.9 86.5-66.1 86.5-120.3z"/><path d="M774.7 292.8 172.9 182.1l316.7 796.8 441.2-537.6-156.1-148.5zm-9.6 48.8 92.1 87.5-251.8 45.6 159.7-133.1zm-214.4 124L285.3 245.5 719 325.3 550.7 465.6zm-19 39-43.2 357.7-233.3-587.2 276.5 229.5zm40 18.9L850.5 473 530.8 862.6l40.9-339.1z" style="fill:#eb0029"/></svg>