<svg version="1.1" id="Слой_1" xmlns="http://www.w3.org/2000/svg" x="0" y="0" viewBox="0 0 103 32" style="enable-background:new 0 0 103 32" xml:space="preserve"><style>.st1{fill:#fff}</style><circle cx="14.2" cy="15.6" r="14" style="fill:#26a17b"/><path class="st1" d="M15.6 16.9h-1.7c-.9 0-1.5 0-1.7-.1-3.4-.2-6-.8-6-1.5s2.6-1.3 6-1.4v2.3c.2 0 .9.1 1.8.1h1.7V14c3.4.2 6 .8 6 1.5-.1.7-2.6 1.3-6.1 1.4m.1-3.1v-2.1h4.8V8.5l-13-.1v3.2h4.8v2.1c-3.9.1-6.8.9-6.8 1.8s2.9 1.7 6.8 1.9l-.1 6.7h3.4l.1-6.7c3.9-.1 6.8-.9 6.8-1.8-.1-.8-3-1.6-6.8-1.8M40.2 9.6V13h3.3v2.5h-3.3v5.1c0 1.1.6 1.7 1.5 1.7.5 0 1-.1 1.4-.3l.8 2.5c-.8.3-1.5.5-2.4.5-2.6.1-4.2-1.4-4.2-4.4v-5.1h-2.2V13h2.2V9.9l2.9-.3zm56.4 3.7.2 1.4c.9-1.5 2.2-1.7 3.4-1.7 1.2 0 2.4.5 3 1.2l-1.3 2.5c-.6-.5-1.1-.8-2.1-.8-1.5 0-3 .8-3 3l-.1 6.3h-2.9l.1-11.9h2.7zm-7.3 4.5c-.2-1.5-1.4-2.3-3.1-2.3-1.6 0-2.9.7-3.3 2.3h6.4zm-6.4 2.4c.2 1.5 1.4 2.5 3.5 2.6 1.1 0 2.5-.4 3.2-1.1l1.9 1.9c-1.3 1.3-3.3 1.9-5.1 1.9-4.1 0-6.5-2.6-6.5-6.4 0-3.6 2.5-6.2 6.4-6.2 4 0 6.4 2.5 5.9 7.4l-9.3-.1zM70 8.1v6.6c1.1-1.4 2.4-1.8 3.7-1.7 3.4 0 4.8 2.3 4.8 5.8l-.1 6.2h-2.9l.1-6.2c0-2.2-1.1-3.1-2.7-3.1-1.7 0-2.9 1.4-3 3.2V25H67l.2-16.8 2.8-.1zm-7.8 1.6v3.4h3.3v2.5h-3.3v5.1c0 1.1.6 1.7 1.5 1.7.5 0 1-.1 1.4-.3l.8 2.5c-.9.3-1.6.4-2.5.4-2.6.1-4.2-1.4-4.2-4.4v-5.1H57V13h2.2V9.9l3-.2zM54 17.5c-.2-1.5-1.4-2.3-3.1-2.3-1.6 0-2.9.7-3.3 2.3H54zm-6.4 2.4c.2 1.5 1.4 2.5 3.5 2.6 1.1 0 2.5-.4 3.2-1.1l1.9 1.9c-1.3 1.3-3.3 1.9-5.1 1.9-4.1 0-6.5-2.6-6.5-6.4 0-3.6 2.5-6.2 6.4-6.2 4 0 6.4 2.5 5.9 7.4l-9.3-.1z"/></svg>