<svg xmlns="http://www.w3.org/2000/svg" viewBox="0 0 103 32" style="enable-background:new 0 0 103 32" xml:space="preserve"><path d="M18 8.2 11.8 23H7.7l-3-11.8c-.2-.7-.3-1-.9-1.3-.9-.5-2.5-1-3.8-1.3l.1-.4h6.5c.8 0 1.6.6 1.8 1.5l1.6 8.6 4-10.1h4zm15.9 10c0-3.9-5.4-4.1-5.4-5.9 0-.5.5-1.1 1.6-1.2.5-.1 2.1-.1 3.8.7l.7-3.1c-.9-.3-2.1-.7-3.6-.7-3.8 0-6.4 2-6.5 4.9 0 2.1 1.9 3.3 3.4 4 1.5.7 2 1.2 2 1.8 0 1-1.2 1.4-2.3 1.4-1.9 0-3-.5-3.9-.9l-.7 3.3c.9.4 2.5.8 4.3.8 3.9-.1 6.5-2 6.6-5.1m9.9 4.8h3.5l-3-14.8H41c-.7 0-1.3.4-1.6 1.1L33.6 23h4l.8-2.2h4.9l.5 2.2zm-4.2-5.2 2-5.6 1.2 5.6h-3.2zM23.5 8.2 20.3 23h-3.8l3.2-14.8h3.8z" style="fill:#277fff"/><linearGradient id="a" gradientUnits="userSpaceOnUse" x1="7.337" y1="9.008" x2="6.037" y2="10.634"><stop offset="0" style="stop-color:#c08c4c"/><stop offset="1" style="stop-color:#f6a43b"/></linearGradient><path d="M8.4 9.7c-.2-1-.9-1.5-1.8-1.5H.1l-.1.4c1 .2 2 .5 2.9.8.3.1.6.3.8.4.2.1.3.2.4.3.6.4 1.3.9 1.8 1.6C7.2 13.3 9.5 16 9.5 16L8.4 9.7z" style="fill:url(#a)"/><circle cx="74.7" cy="16.3" r="12.4" style="fill:#d24a48"/><circle cx="90.6" cy="16.3" r="12.4" style="fill:#eaab4d"/><ellipse cx="82.6" cy="16.3" rx="4.5" ry="9.6" style="fill:#dd754a"/></svg>