<svg version="1.1" id="Слой_1" xmlns="http://www.w3.org/2000/svg" x="0" y="0" viewBox="0 0 103 32" style="enable-background:new 0 0 103 32" xml:space="preserve"><style>.st0{fill:#fff}</style><path class="st0" d="M18.6 10.2h5c.3 0 .6.1.7.4.1.3 0 .5-.2.8-2.7 2.7-5.4 5.4-8.1 8.2l-1.9 1.9c-.2.2-.5.4-.9.2-.3-.1-.4-.4-.4-.8V11c0-.7.2-.9.8-.9h5zM30.9 10.2h4.9c.3 0 .6 0 .8.4.1.4 0 .6-.2.8-2.8 2.8-5.5 5.6-8.3 8.3l-1.8 1.8c-.2.2-.5.4-.8.2-.3-.1-.4-.4-.4-.7V10.9c0-.5.2-.8.8-.8 1.7.1 3.4.1 5 .1zM11.5 16v5c0 .3-.1.6-.4.7-.3.1-.6 0-.8-.2C7 18.2 3.7 14.8.3 11.4c-.3-.3-.4-.6-.2-.9.1-.3.4-.3.7-.3h9.8c.7 0 .9.2.9.9V16zM59 13.6l1.3 4.1h-2.6l1.3-4.1zm-1.1-3.4-4 11.6h2.5l.7-2.2H61l.7 2.2h2.5l-4-11.6h-2.3zM64.6 21.8h7.8v-2h-4.8l4.7-8v-1.5h-7.7v2h4.7l-4.7 8v1.5zM80.2 16.8v-1.5c0-2-.5-3-2.1-3h-1.8v7.6h1.8c1.5-.1 2.1-1.1 2.1-3.1zm-6.3 5V10.3H78c2.6 0 4.5 1.3 4.5 5v1.5c0 3.7-1.8 5-4.5 5h-4.1zM88 13.6l1.3 4.1h-2.6l1.3-4.1zm-1.1-3.4-4 11.6h2.5l.7-2.2H90l.7 2.2h2.5l-4-11.6h-2.3zM94.3 21.8h2.2v-7.2l4.5 7.2h2V10.2h-2.2v7.3l-4.5-7.3h-1.9v11.6zM44.5 16.8c.7-1.5 1.5-3 2.3-4.5h1.5c.7 1.5 1.5 3 2.2 4.4h.2v-6.5H53v11.4h-2.2c-1-1.9-2-4-3.2-6.1-1.1 2.1-2.1 4.1-3.2 6.1h-2.3V10.2h2.2v6.5c.1.1.2.1.2.1z"/></svg>