<svg width="15px" height="15px" fill="none" xmlns="http://www.w3.org/2000/svg" transform="rotate(0) scale(1, 1)"><g clip-path="url(#a)" fill="#ffbb60"><path d="M10.781 7.031a.469.469 0 1 0 0-.937.469.469 0 0 0 0 .937Z"/><path d="m14.953 11.625-1.36-6.984a2.616 2.616 0 0 0-1.265-1.781 2.626 2.626 0 0 0-3.281.421l-.563.47H6.468l-.515-.516a2.705 2.705 0 0 0-3.282-.422c-.656.422-1.078 1.078-1.265 1.828L0 11.625c-.094.469.047.985.328 1.36.375.375.843.609 1.312.609.422 0 .797-.188 1.078-.469L4.5 11.11c.656-.797 1.687-1.266 2.718-1.266h.516c1.078 0 2.063.469 2.766 1.266l1.78 2.015c.282.328.657.469 1.079.469.516 0 .984-.234 1.266-.61.28-.374.421-.89.328-1.359ZM5.156 7.031h-.469v.47c0 .28-.187.468-.469.468-.28 0-.468-.188-.468-.469v-.469h-.47c-.28 0-.468-.187-.468-.468 0-.282.188-.469.469-.469h.469v-.469c0-.281.187-.469.468-.469.282 0 .47.188.47.47v.468h.468c.281 0 .469.187.469.469 0 .281-.188.468-.47.468Zm2.812.938h-.937c-.281 0-.469-.188-.469-.469 0-.281.188-.469.469-.469h.937c.282 0 .47.188.47.47 0 .28-.188.468-.47.468Zm0-1.406h-.937c-.281 0-.469-.188-.469-.469 0-.281.188-.469.469-.469h.937c.282 0 .47.188.47.469 0 .281-.188.469-.47.469Zm2.813 1.406c-.797 0-1.406-.61-1.406-1.406 0-.797.609-1.407 1.406-1.407.797 0 1.406.61 1.406 1.407s-.61 1.406-1.406 1.406Z"/><path d="m14.953 11.625-1.36-6.984a2.616 2.616 0 0 0-1.265-1.781 2.626 2.626 0 0 0-3.281.421l-.563.47H6.468l-.515-.516a2.705 2.705 0 0 0-3.282-.422c-.656.422-1.078 1.078-1.265 1.828L0 11.625c-.094.469.047.985.328 1.36.375.375.843.609 1.312.609.422 0 .797-.188 1.078-.469L4.5 11.11c.656-.797 1.687-1.266 2.718-1.266h.516c1.078 0 2.063.469 2.766 1.266l1.78 2.015c.282.328.657.469 1.079.469.516 0 .984-.234 1.266-.61.28-.374.421-.89.328-1.359ZM5.156 7.031h-.469v.47c0 .28-.187.468-.469.468-.28 0-.468-.188-.468-.469v-.469h-.47c-.28 0-.468-.187-.468-.468 0-.282.188-.469.469-.469h.469v-.469c0-.281.187-.469.468-.469.282 0 .47.188.47.47v.468h.468c.281 0 .469.187.469.469 0 .281-.188.468-.47.468Zm2.812.938h-.937c-.281 0-.469-.188-.469-.469 0-.281.188-.469.469-.469h.937c.282 0 .47.188.47.47 0 .28-.188.468-.47.468Zm0-1.406h-.937c-.281 0-.469-.188-.469-.469 0-.281.188-.469.469-.469h.937c.282 0 .47.188.47.469 0 .281-.188.469-.47.469Zm2.813 1.406c-.797 0-1.406-.61-1.406-1.406 0-.797.609-1.407 1.406-1.407.797 0 1.406.61 1.406 1.407s-.61 1.406-1.406 1.406Z"/></g><defs><clipPath id="a"><path fill="#ffffff" d="M0 0h15v15H0z"/></clipPath></defs></svg>