<svg version="1.0" xmlns="http://www.w3.org/2000/svg" width="400.000000ptpx" height="136.000000ptpx" viewBox="0 0 400.000000 136.000000" preserveAspectRatio="xMidYMid meet" transform="rotate(0) scale(1, 1)">

<g transform="translate(0.000000,136.000000) scale(0.100000,-0.100000)" fill="#e1b71f" stroke="none">
<path d="M942 1166 c4 -59 2 -76 -7 -72 -48 18 -151 46 -171 46 -35 0 -29 -15&#10;19 -49 60 -41 67 -51 74 -111 6 -50 5 -52 -15 -45 -31 9 -29 -15 3 -45 l25&#10;-24 -21 -23 c-17 -17 -19 -26 -11 -36 8 -10 1 -24 -30 -60 -38 -45 -39 -49&#10;-25 -70 14 -21 13 -25 -14 -55 -23 -26 -46 -37 -102 -52 -112 -29 -187 -59&#10;-187 -77 0 -21 150 -173 235 -238 39 -30 97 -70 130 -90 74 -45 101 -43 248&#10;17 205 84 498 267 505 316 6 43 -50 78 -168 107 -58 14 -113 25 -122 25 -37 0&#10;-40 26 -8 86 37 73 37 87 1 113 -26 19 -28 24 -18 45 6 12 20 27 31 32 37 16&#10;31 42 -13 55 -53 16 -60 50 -30 159 12 44 19 83 15 87 -4 4 -71 11 -149 14&#10;-78 4 -155 10 -171 14 l-29 8 5 -77z m58 -176 c0 -5 -4 -10 -9 -10 -6 0 -13 5&#10;-16 10 -3 6 1 10 9 10 9 0 16 -4 16 -10z m25 -50 c-5 -8 -11 -8 -17 -2 -6 6&#10;-7 16 -3 22 5 8 11 8 17 2 6 -6 7 -16 3 -22z m25 -20 c0 -5 -5 -10 -11 -10 -5&#10;0 -7 5 -4 10 3 6 8 10 11 10 2 0 4 -4 4 -10z m164 -48 c-1 -18 8 -28 42 -45&#10;52 -25 56 -48 17 -89 -29 -31 -43 -34 -61 -16 -7 7 -26 17 -44 22 -21 7 -34&#10;19 -38 35 -4 17 -13 25 -33 27 -30 3 -35 -7 -12 -26 10 -9 15 -9 15 -1 0 6 5&#10;11 11 11 6 0 9 -7 5 -15 -5 -15 39 -45 67 -45 8 0 22 -9 32 -20 13 -15 22 -17&#10;36 -9 23 12 24 2 2 -23 -24 -26 -52 -22 -112 17 -29 19 -57 35 -62 35 -19 0&#10;-3 -25 24 -37 15 -7 27 -17 27 -22 0 -6 8 -7 18 -4 16 6 16 6 0 -10 -17 -17&#10;-136 -47 -188 -47 -19 0 -36 10 -54 30 -22 27 -24 34 -13 58 6 15 16 30 22 35&#10;6 4 5 11 -5 17 -13 9 -13 10 0 10 8 0 25 3 38 6 13 4 22 2 22 -5 0 -5 -6 -8&#10;-14 -5 -10 4 -14 -1 -13 -14 1 -13 7 -18 19 -14 19 5 20 6 22 52 0 17 -3 30&#10;-7 30 -5 0 1 13 13 29 20 28 24 30 88 28 54 -2 72 2 86 16 25 24 51 18 50 -11z&#10;m-317 -246 l28 -25 -40 -40 c-21 -23 -43 -41 -47 -41 -13 0 -9 105 4 118 17&#10;17 23 15 55 -12z m303 16 c0 -23 -179 -152 -210 -152 -14 0 -30 44 -30 79 0&#10;25 5 29 38 35 20 3 62 6 92 7 30 0 49 3 41 6 -10 4 -5 10 15 19 34 15 54 17&#10;54 6z m5 -53 c-3 -8 -23 -27 -43 -42 -91 -69 -252 -278 -267 -345 -6 -31 -8&#10;-32 -24 -18 -10 9 -22 16 -27 16 -5 0 -23 13 -41 28 -30 25 -32 31 -34 102 -1&#10;41 1 82 4 90 3 8 11 32 17 53 10 31 14 36 26 26 12 -10 21 -6 49 21 18 18 38&#10;29 44 25 6 -3 10 -1 9 6 -2 6 3 14 10 16 8 3 12 -7 12 -32 0 -21 4 -34 10 -30&#10;6 3 10 -3 10 -14 0 -12 5 -21 12 -21 18 0 195 100 214 121 19 21 28 20 19 -2z"/>
<path d="M1750 900 l0 -170 76 0 c95 0 153 15 189 47 97 91 57 250 -71 282&#10;-24 6 -77 11 -118 11 l-76 0 0 -170z m207 65 c34 -39 31 -98 -7 -136 -25 -26&#10;-36 -30 -72 -27 l-43 3 -3 84 c-4 112 -2 115 55 108 35 -4 53 -12 70 -32z"/>
<path d="M2112 863 l3 -128 43 -3 42 -3 0 75 c0 82 18 116 60 116 16 0 20 7&#10;20 35 0 41 -23 47 -58 15 l-22 -21 0 21 c0 17 -6 20 -45 20 l-46 0 3 -127z"/>
<path d="M2348 978 c-30 -10 -33 -19 -18 -48 8 -16 15 -17 44 -8 40 13 86 3&#10;86 -17 0 -11 -11 -15 -39 -15 -81 0 -121 -29 -121 -88 0 -57 81 -93 140 -62&#10;13 7 21 7 25 0 3 -5 24 -10 46 -10 l39 0 0 101 c0 98 -1 101 -29 130 -26 26&#10;-36 29 -88 28 -32 0 -70 -5 -85 -11z m110 -160 c-2 -19 -10 -24 -40 -26 -32&#10;-3 -38 0 -38 16 0 26 8 32 47 32 30 0 34 -3 31 -22z"/>
<path d="M2634 972 c-62 -50 -59 -158 6 -209 19 -15 84 -17 111 -3 16 9 19 7&#10;19 -9 0 -11 -8 -27 -17 -36 -16 -17 -53 -17 -109 0 -28 9 -51 -37 -27 -56 26&#10;-22 141 -24 179 -4 53 28 64 65 64 209 l0 126 -44 0 c-26 0 -46 -5 -49 -12 -4&#10;-10 -7 -10 -18 0 -19 18 -90 15 -115 -6z m120 -58 c35 -35 12 -104 -34 -104&#10;-19 0 -33 7 -40 19 -24 45 -2 101 40 101 10 0 26 -7 34 -16z"/>
<path d="M2975 980 c-97 -40 -97 -195 0 -236 103 -43 205 15 205 115 -1 55&#10;-16 85 -56 112 -31 20 -111 25 -149 9z m100 -75 c29 -28 31 -51 9 -83 -17 -24&#10;-62 -30 -82 -10 -21 21 -15 85 10 102 30 21 35 20 63 -9z"/>
<path d="M3230 860 l0 -130 40 0 40 0 0 73 c0 78 16 117 50 117 38 0 50 -27&#10;50 -111 l0 -79 40 0 40 0 0 105 c0 99 -2 107 -25 130 -29 30 -104 35 -125 10&#10;-7 -8 -16 -15 -21 -15 -5 0 -9 7 -9 15 0 11 -11 15 -40 15 l-40 0 0 -130z"/>
<path d="M1750 470 l0 -170 35 0 34 0 3 108 3 107 42 -87 c40 -83 44 -88 73&#10;-88 30 0 34 5 68 82 l37 82 5 -100 5 -99 38 -3 37 -3 0 171 0 171 -47 -3 -48&#10;-3 -44 -92 c-25 -51 -47 -93 -50 -93 -4 0 -28 43 -54 95 l-47 95 -45 0 -45 0&#10;0 -170z"/>
<path d="M2236 541 c-40 -27 -55 -57 -56 -112 0 -100 102 -158 205 -115 51 22&#10;77 69 72 130 -4 42 -10 55 -41 83 -32 29 -42 33 -93 33 -40 0 -67 -6 -87 -19z&#10;m112 -57 c26 -18 31 -84 8 -103 -24 -20 -69 -9 -85 20 -12 22 -12 31 -2 57 11&#10;27 21 34 51 41 3 0 16 -6 28 -15z"/>
<path d="M2502 433 l3 -128 43 -3 42 -3 0 79 c0 64 4 82 18 95 48 44 82 3 82&#10;-100 l0 -73 40 0 40 0 0 95 c0 100 -13 147 -45 159 -30 11 -85 6 -110 -10 -23&#10;-15 -25 -15 -25 0 0 12 -10 16 -45 16 l-46 0 3 -127z"/>
<path d="M2852 526 c-35 -33 -37 -38 -37 -95 0 -55 3 -64 33 -93 30 -30 38&#10;-33 95 -33 44 0 71 5 91 18 l28 19 -22 23 c-21 22 -23 22 -51 7 -26 -15 -31&#10;-15 -56 -2 -54 30 -40 40 56 40 99 0 98 -1 81 62 -16 57 -60 88 -126 88 -48 0&#10;-59 -4 -92 -34z m136 -53 c3 -21 -1 -23 -42 -23 -31 0 -46 4 -46 13 0 23 24&#10;38 55 35 22 -2 31 -9 33 -25z"/>
<path d="M3096 523 c96 -229 100 -249 43 -241 -25 4 -33 0 -44 -23 -12 -23&#10;-12 -29 0 -39 22 -19 94 -15 124 7 26 20 35 40 111 235 l38 98 -43 0 -44 0&#10;-22 -72 c-11 -40 -24 -76 -28 -80 -4 -5 -20 28 -36 72 l-29 80 -43 0 -43 0 16&#10;-37z"/>
</g>
</svg>