<svg width="1017" height="138" fill="none" xmlns="http://www.w3.org/2000/svg"><path d="M0 16.81c0-3.932 1.472-7.356 4.417-10.275 2.945-2.918 6.774-4.377 11.485-4.377 5.498 0 9.653 1.34 12.467 4.02 1.898 1.846 3.763 5.033 5.596 9.56l27.78 67.091 27.682-67.092c1.767-4.526 3.6-7.653 5.497-9.38 2.945-2.8 7.166-4.2 12.663-4.2 4.581 0 8.344 1.43 11.289 4.289 3.01 2.859 4.515 6.313 4.515 10.363 0 1.37-.327 3.008-.981 4.914a87.181 87.181 0 0 1-2.356 5.896l-40.64 92.374c-2.421 5.599-4.286 9.202-5.595 10.81-2.945 3.395-7.1 5.092-12.467 5.092-5.235 0-9.325-1.697-12.27-5.092-1.636-1.846-3.6-5.449-5.89-10.81L3.436 27.619c-.524-1.191-1.244-3.008-2.16-5.45C.426 19.668 0 17.881 0 16.81ZM121.657 68.982c0-20.726 6.38-37.343 19.142-49.85C153.625 6.625 170.706.372 192.04.372c21.203 0 38.218 6.223 51.045 18.67 12.892 12.448 19.338 29.095 19.338 49.94s-6.413 37.521-19.24 50.029c-12.827 12.507-29.874 18.76-51.143 18.76-21.334 0-38.415-6.253-51.241-18.76-12.762-12.508-19.142-29.184-19.142-50.03Zm34.946 0c0 11.614 2.748 21.113 8.246 28.498 6.282 8.398 15.346 12.627 27.191 12.686 11.779 0 20.81-4.228 27.093-12.686 5.497-7.444 8.246-16.944 8.246-28.498 0-11.495-2.749-20.965-8.246-28.41-6.283-8.397-15.314-12.596-27.093-12.596-11.78 0-20.844 4.2-27.191 12.597-5.498 7.325-8.246 16.795-8.246 28.409Z" fill="#fff"/><path d="m271.258 119.815 1.556-104.247c0-4.765 17.845 2.62 20.986 0 3.141-2.62-10.828-12.338-6.247-12.338l38.533-2.19c20.352 0 37.216 8.8 49.715 22.023 11.649 12.328 17.473 27.307 17.473 44.936 0 20.726-5.409 38.683-18.76 51.012-12.434 11.494-23.255 16.014-41.971 16.014l-44.99-.202c-4.45 0-8.279-1.34-11.485-4.02-3.207-2.68-4.81-6.343-4.81-10.988Zm0 0 48.371-15.461c12.303 0 23.19-.918 29.668-8.124 6.021-6.73 9.031-16.14 9.031-28.23 0-11.495-2.539-16.918-6.414-23.375-3.874-6.457-12.631-12.914-24.214-12.914 1.678-5.67-8.071-7.679-8.071-4.843l-46.815-11.3-1.556 104.247Z" fill="#0090FF"/><path d="M401.772 119.993V18.06c0-5.122 1.505-9.053 4.515-11.793 3.01-2.74 6.937-4.11 11.78-4.11 4.973 0 8.932 1.34 11.877 4.021 2.945 2.68 4.418 6.64 4.418 11.882v36.628l44.86-45.026c2.945-3.037 5.497-5.033 7.657-5.985 2.225-1.013 4.745-1.52 7.559-1.52 3.73 0 7.362 1.43 10.896 4.289 3.599 2.859 5.399 6.254 5.399 10.184 0 2.204-.524 4.229-1.571 6.075-1.047 1.787-2.65 3.723-4.81 5.807l-38.873 35.914 42.505 42.256c3.207 3.276 5.334 5.628 6.381 7.058 1.767 2.442 2.65 4.884 2.65 7.325 0 4.646-1.669 8.279-5.006 10.9-3.272 2.62-7.297 3.93-12.074 3.93-3.73 0-7.493-1.399-11.289-4.199-2.029-1.488-4.974-4.288-8.835-8.397l-45.449-46.813v43.507c0 5.122-1.505 9.053-4.516 11.793-3.01 2.739-6.937 4.109-11.779 4.109-4.974 0-8.933-1.34-11.878-4.02-2.945-2.68-4.417-6.641-4.417-11.882ZM524.476 123.656c0-2.323.294-4.735.883-7.236.654-2.502 1.963-6.254 3.927-11.257l31.412-77.723c3.73-9.41 6.937-15.753 9.62-19.029 4.45-5.36 10.274-8.04 17.473-8.04 5.89 0 10.765 1.578 14.626 4.735 3.927 3.157 8.246 10.601 12.958 22.334l31.314 77.723c2.16 5.242 3.501 9.023 4.025 11.346.523 2.323.785 4.705.785 7.147 0 3.752-1.407 6.73-4.221 8.934-2.814 2.204-6.61 3.305-11.387 3.305-4.974 0-8.802-1.34-11.485-4.02-2.16-2.084-4.025-5.628-5.596-10.631l-13.742-39.487h-34.161l-13.645 39.487c-1.767 4.884-3.632 8.368-5.595 10.452-2.683 2.8-6.512 4.199-11.485 4.199-4.712 0-8.508-1.101-11.387-3.305-2.88-2.263-4.319-5.241-4.319-8.934Zm46.431-41.899h34.161l-16.197-48.153-17.964 48.153Z" fill="#fff"/><path d="M659.548 121.691c0-4.288 1.702-8.041 5.105-11.257 3.403-3.275 7.526-4.913 12.368-4.913 4.712 0 8.802 1.608 12.271 4.824 3.468 3.157 5.202 6.938 5.202 11.346 0 4.407-1.734 8.189-5.202 11.346-3.469 3.156-7.559 4.734-12.271 4.734-4.842 0-8.965-1.548-12.368-4.645-3.403-3.157-5.105-6.968-5.105-11.435Z" fill="#0090FF"/><path d="M707.55 119.815V18.239c0-4.765 1.571-8.458 4.712-11.078 3.207-2.62 7.068-3.931 11.583-3.931h38.382c12.303 0 22.087 3.186 29.351 9.559 7.264 6.313 10.896 14.621 10.896 24.925 0 5.956-1.931 11.316-5.792 16.08-2.945 3.515-6.708 6.492-11.288 8.934 8.703 1.608 15.673 5.33 20.908 11.167 5.236 5.837 7.853 12.925 7.853 21.263 0 11.316-3.894 20.517-11.681 27.605-8.835 8.04-21.563 12.06-38.186 12.06h-40.443c-4.45 0-8.278-1.34-11.485-4.02-3.207-2.68-4.81-6.343-4.81-10.988Zm32.59-11.525h20.516c6.021 0 10.635-.983 13.841-2.948 3.862-2.323 5.825-5.866 5.89-10.631 0-4.526-1.963-7.891-5.89-10.095-3.861-2.263-8.474-3.395-13.841-3.395H740.14v27.069Zm0-53.602h14.921c9.882 0 14.823-4.08 14.823-12.24 0-8.397-4.941-12.625-14.823-12.685H740.14v24.925ZM823.775 119.815V18.239c0-4.765 1.571-8.458 4.712-11.078 3.141-2.62 7.003-3.931 11.583-3.931h46.726c5.235 0 9.26 1.22 12.074 3.663 2.814 2.442 4.221 5.866 4.221 10.273 0 4.289-1.407 7.654-4.221 10.096-2.814 2.441-6.839 3.662-12.074 3.662h-30.43v23.943h30.725c5.104 0 9.096 1.22 11.976 3.663 2.879 2.441 4.319 5.806 4.319 10.095 0 9.231-5.366 13.847-16.099 13.847H856.366v24.567h30.43c5.235 0 9.26 1.221 12.074 3.663 2.814 2.442 4.221 5.837 4.221 10.185 0 4.288-1.44 7.683-4.319 10.184-2.879 2.502-6.871 3.752-11.976 3.752H840.07c-4.45 0-8.278-1.34-11.485-4.02-3.206-2.68-4.81-6.343-4.81-10.988ZM914.027 17.166c0-9.29 5.628-13.936 16.884-13.936h69.209c11.25 0 16.88 4.645 16.88 13.936 0 4.17-1.47 7.505-4.42 10.006-2.94 2.502-7.1 3.752-12.46 3.752h-18.361v89.069c0 5.122-1.505 9.053-4.515 11.793-3.01 2.739-6.904 4.109-11.682 4.109-4.973 0-8.932-1.34-11.877-4.02-2.945-2.68-4.418-6.641-4.418-11.882V30.924h-18.356c-5.366 0-9.522-1.22-12.467-3.662-2.945-2.442-4.417-5.807-4.417-10.096Z" fill="#fff"/><path d="M271.2 17.182c0-8.916 6.505-16.143 14.529-16.143h40.357c8.024 0 22.6 7.227 22.6 16.143 0 8.915-9.733 14.529-17.757 14.529h-45.2c-8.024 0-14.529-5.614-14.529-14.53ZM271.2 120.494c0-8.915 6.505-16.142 14.529-16.142h40.357c8.024 0 22.6 7.227 22.6 16.142 0 8.916-9.733 14.529-17.757 14.529h-45.2c-8.024 0-14.529-5.613-14.529-14.529Z" fill="#0090FF"/><path d="M271.2 120.496c0-7.132 6.505-12.914 14.529-12.914h40.357c8.024 0 22.6 5.782 22.6 12.914 0 7.133-11.348 12.915-19.372 12.915h-43.585c-8.024 0-14.529-5.782-14.529-12.915Z" fill="#0090FF"/></svg>