<svg width="15" height="15" fill="none" xmlns="http://www.w3.org/2000/svg" style="color:#2b90fe"><path d="M12.571 1H10.43C9.639 1 9 1.64 9 2.429V4.57C9 5.361 9.64 6 10.429 6h2.142C13.361 6 14 5.36 14 4.571V2.43C14 1.639 13.36 1 12.571 1ZM4.571 1H2.43C1.639 1 1 1.64 1 2.429V4.57C1 5.361 1.64 6 2.429 6H4.57C5.361 6 6 5.36 6 4.571V2.43C6 1.639 5.36 1 4.571 1ZM12.571 9H10.43C9.639 9 9 9.64 9 10.429v2.142c0 .79.64 1.429 1.429 1.429h2.142c.79 0 1.429-.64 1.429-1.429V10.43C14 9.639 13.36 9 12.571 9ZM4.571 9H2.43C1.639 9 1 9.64 1 10.429v2.142C1 13.361 1.64 14 2.429 14H4.57C5.361 14 6 13.36 6 12.571V10.43C6 9.639 5.36 9 4.571 9Z" stroke="currentColor" stroke-width="1.14" stroke-linecap="round" stroke-linejoin="round"/></svg>